<svg width="615" height="459" viewBox="0 0 615 459" fill="none" xmlns="http://www.w3.org/2000/svg">
<path d="M102.592 82.0373C136.963 8.85122 259.01 19.1798 306.11 70.6378C353.21 122.096 368.524 155.088 411.008 135.884C453.492 116.679 507.67 121.8 510.723 182.861C513.776 243.921 464.103 316.122 385.07 337.481C306.036 358.84 306.085 434.438 201.52 419.186C144.51 410.876 143.217 349.188 151.268 298.173C159.319 247.158 62.7309 166.906 102.592 82.0373Z" fill="#96B1FF"/>
<path opacity="0.9" d="M102.592 82.0373C136.963 8.85122 259.01 19.1798 306.11 70.6378C353.21 122.096 368.524 155.088 411.008 135.884C453.492 116.679 507.67 121.8 510.723 182.861C513.776 243.921 464.103 316.122 385.07 337.481C306.036 358.84 306.085 434.438 201.52 419.186C144.51 410.876 143.217 349.188 151.268 298.173C159.319 247.158 62.7309 166.906 102.592 82.0373Z" fill="white"/>
<path d="M306.282 458.641C438.106 458.641 544.971 452.402 544.971 444.705C544.971 437.009 438.106 430.77 306.282 430.77C174.458 430.77 67.5933 437.009 67.5933 444.705C67.5933 452.402 174.458 458.641 306.282 458.641Z" fill="#F5F5F5"/>
<path d="M167.986 146.865C167.986 146.865 161.301 147.665 161.72 152.675C161.72 152.675 154.185 153.155 155.441 158.067C155.441 158.067 149.569 160.209 151.465 168.568C153.361 176.927 191.388 177.899 196.127 174.416C200.867 170.932 197.543 165.724 197.543 165.724C197.543 165.724 199.648 163.878 196.312 160.049C196.866 158.43 196.859 156.671 196.292 155.057C195.724 153.442 194.63 152.066 193.185 151.149C188.101 147.874 173.415 145.929 167.986 146.865Z" fill="#263238"/>
<path d="M218.299 443.573C210.334 443.573 209.275 443.45 204.757 443.302C200.929 443.167 200.005 443.647 196.928 443.573C194.343 443.573 194.466 441.049 195.241 438.218C195.635 436.79 196.251 433.786 196.792 431.484L208.475 430.634C210.125 433.774 213.83 438.242 218.324 438.846C222.645 439.486 221.487 443.573 218.299 443.573Z" fill="#263238"/>
<path d="M178.954 228.557C178.954 228.557 189.271 290.738 190.97 322.819C192.755 356.501 203.563 410.458 209.263 431.533C207.663 432.986 200.104 433.589 196.534 431.804C196.534 431.804 165.376 369.574 169.451 330.673C143.389 257.302 149.692 229.85 149.692 229.85L178.954 228.557Z" fill="#96B1FF"/>
<g opacity="0.5">
<path d="M178.955 228.557C178.955 228.557 189.272 290.738 190.971 322.819C192.756 356.501 203.564 410.458 209.264 431.533C207.664 432.986 200.105 433.589 196.535 431.804C196.535 431.804 165.377 369.574 169.452 330.673C143.39 257.302 149.693 229.85 149.693 229.85L178.955 228.557Z" fill="white"/>
</g>
<path d="M159.319 443.573C151.354 443.573 150.296 443.45 145.778 443.302C141.949 443.167 141.026 443.647 137.948 443.573C135.363 443.573 135.486 441.049 136.262 438.218C136.656 436.79 137.271 433.786 137.813 431.484L149.496 430.634C151.145 433.774 154.851 438.242 159.344 438.846C163.665 439.486 162.508 443.573 159.319 443.573Z" fill="#263238"/>
<path opacity="0.2" d="M161.708 307.332C158.014 295.108 155.331 284.521 153.447 275.448C155.318 268.345 157.978 262.263 161.597 258.62C161.597 258.62 166.792 278.39 161.708 307.332Z" fill="black"/>
<path d="M167.789 225.283C167.789 225.283 159.258 291.255 154.383 323.004C149.249 356.353 148.597 409.854 149.877 431.656C148.006 432.74 141.26 434.045 137.566 432.887C137.566 432.887 120.184 365.45 131.731 326.29C121.218 249.14 136.434 230.268 136.434 230.268L167.789 225.283Z" fill="#96B1FF"/>
<g opacity="0.5">
<path d="M167.789 225.283C167.789 225.283 159.258 291.255 154.383 323.004C149.249 356.353 148.597 409.854 149.877 431.656C148.006 432.74 141.26 434.045 137.566 432.887C137.566 432.887 120.184 365.45 131.731 326.29C121.218 249.14 136.434 230.268 136.434 230.268L167.789 225.283Z" fill="white"/>
</g>
<path d="M254.332 205.586L251.71 203.825C251.224 203.501 250.669 203.296 250.089 203.227C249.509 203.159 248.921 203.229 248.373 203.432L243.178 205.389C242.155 205.771 241.239 206.393 240.506 207.203C239.774 208.012 239.246 208.986 238.968 210.042L238.624 211.372C242.76 214.597 249.617 215.065 249.617 215.065L251.55 215.397C251.949 215.479 252.36 215.48 252.759 215.4C253.159 215.319 253.538 215.16 253.874 214.93C254.211 214.7 254.498 214.405 254.718 214.063C254.938 213.72 255.087 213.337 255.157 212.935L255.883 209.107C255.994 208.433 255.906 207.741 255.631 207.116C255.355 206.491 254.904 205.959 254.332 205.586Z" fill="#B55B52"/>
<path d="M203.28 176.545C206.58 182.147 210.063 188.745 214.286 193.411C215.82 194.675 217.518 195.726 219.333 196.538C223.507 198.618 227.951 200.514 232.506 202.41L246.146 208.048C246.791 208.322 247.313 208.824 247.612 209.459C247.911 210.093 247.966 210.816 247.767 211.488C247.568 212.16 247.128 212.736 246.531 213.105C245.935 213.474 245.224 213.611 244.533 213.489C239.609 212.566 234.684 211.458 229.871 210.165C222.731 208.109 215.098 206.189 208.562 202.139C205.882 200.154 203.51 197.785 201.52 195.11C198.326 190.975 195.524 186.553 193.149 181.9C189.886 175.13 199.501 170.033 203.28 176.533V176.545Z" fill="#B65B52"/>
<path d="M189.455 164.087C198.972 163.804 204.228 170.156 210.383 185.261C207.589 190.887 194.54 196.242 194.54 196.242C194.54 196.242 183.177 174.132 189.455 164.087Z" fill="#96B1FF"/>
<path opacity="0.6" d="M187.978 176.816C189.256 183.56 191.442 190.099 194.478 196.254C194.478 196.254 195.857 195.688 197.802 194.728C201.864 192.758 208.438 189.065 210.321 185.261C204.166 170.156 198.971 163.816 189.394 164.099C187.387 167.423 187.252 172.077 187.978 176.816Z" fill="white"/>
<path opacity="0.1" d="M187.978 176.816C189.256 183.56 191.443 190.099 194.478 196.254C194.478 196.254 195.857 195.688 197.802 194.728C198.272 191.087 197.575 187.39 195.809 184.171C194.044 180.952 191.301 178.376 187.978 176.816Z" fill="black"/>
<path d="M184.014 238.947L168.171 244.302L165.228 234.676L162.015 243.551L133.246 236.867C135.708 219.201 145.556 205.118 147.107 199.763C149.249 192.377 150.911 178.244 149.459 169.11V169.048C149.315 168.126 149.363 167.184 149.6 166.281C149.836 165.377 150.257 164.533 150.834 163.799C151.412 163.066 152.134 162.459 152.957 162.017C153.779 161.576 154.683 161.308 155.614 161.231C158.396 161.009 161.19 160.899 163.997 160.899C169.541 160.835 175.082 161.16 180.58 161.871C187.646 162.979 195.635 165.133 195.635 165.133C195.635 165.133 196.731 165.601 196.226 173.197C195.758 179.832 194.49 200.465 180.912 217.921L184.014 238.947Z" fill="#96B1FF"/>
<path opacity="0.6" d="M133.246 236.854L162.015 243.551L165.228 234.676L168.158 244.302L184.027 238.947L180.887 217.896C194.429 200.428 195.734 179.808 196.202 173.148C196.706 165.564 195.598 165.096 195.598 165.096C195.598 165.096 187.621 162.954 180.555 161.834C175.058 161.117 169.516 160.792 163.973 160.862C161.166 160.862 158.371 160.972 155.589 161.194C154.659 161.271 153.754 161.539 152.932 161.98C152.11 162.422 151.387 163.029 150.81 163.762C150.232 164.496 149.812 165.34 149.575 166.244C149.338 167.147 149.29 168.089 149.434 169.011C149.428 169.031 149.428 169.053 149.434 169.073C150.01 173.348 150.142 177.672 149.828 181.974C149.521 187.97 148.601 193.918 147.083 199.726C146.601 201.159 146.013 202.554 145.322 203.899C141.949 210.818 135.228 222.685 133.246 236.854Z" fill="white"/>
<path d="M167.875 174.982C167.875 174.982 174.215 180.472 176.062 194.592L183.202 174.896L188.126 176.385C188.126 176.385 184.346 158.498 172.024 158.153C159.701 157.809 160.673 176.385 160.673 176.385L167.875 174.982Z" fill="#96B1FF"/>
<path opacity="0.5" d="M167.875 174.982C167.875 174.982 174.215 180.472 176.062 194.592L183.202 174.896L188.126 176.385C188.126 176.385 184.346 158.498 172.024 158.153C159.701 157.809 160.673 176.385 160.673 176.385L167.875 174.982Z" fill="white"/>
<path d="M185.639 154.854C185.639 154.854 181.134 157.759 180.358 159.68C180.314 159.801 180.277 159.924 180.247 160.049C180.027 161.142 179.875 162.248 179.792 163.361C183.288 170.747 176.64 183.488 176.64 183.488C173.975 175.967 170.19 168.891 165.413 162.499C172.627 159.68 174.03 145.855 174.03 145.855L177.527 148.551L185.639 154.854Z" fill="#B55B52"/>
<path opacity="0.2" d="M185.639 154.854C185.639 154.854 181.133 157.759 180.358 159.68C180.314 159.801 180.277 159.924 180.247 160.049C178.351 158.589 176.842 156.686 175.851 154.508C174.859 152.33 174.416 149.943 174.56 147.554L177.477 148.551L185.639 154.854Z" fill="black"/>
<path d="M188.102 122.527C188.102 122.527 189.936 120.939 194.257 122.047C198.578 123.154 197.95 126.072 197.95 126.072C197.95 126.072 203.293 128.35 203.995 133.064C204.696 137.779 201.766 139.318 201.766 139.318C202.43 140.258 202.843 141.352 202.966 142.496C203.089 143.64 202.917 144.796 202.468 145.855C202.083 146.907 201.482 147.867 200.704 148.672C199.926 149.478 198.988 150.112 197.95 150.533C197.95 150.533 198.984 153.672 192.706 153.808C186.428 153.943 177.527 146.865 177.527 146.865L173.834 148.096C173.834 148.096 169.55 149.437 167.038 146.865C164.527 144.292 167.038 140.525 167.038 140.525C166.47 140.252 165.965 139.862 165.557 139.38C165.15 138.899 164.849 138.336 164.675 137.73C164.109 135.687 166.226 133.064 166.226 133.064C166.226 133.064 168.799 122.071 175.434 120.028C182.07 117.984 188.102 122.527 188.102 122.527Z" fill="#263238"/>
<path d="M187.227 124.127C196.645 125.358 198.984 130.873 198.307 140.66C197.519 152.971 193.653 161.157 182.241 156.959C166.779 151.272 171.593 121.997 187.227 124.127Z" fill="#B55B52"/>
<path d="M192.348 139.306C192.907 140.818 193.647 142.256 194.552 143.59C194.222 143.942 193.802 144.195 193.337 144.324C192.872 144.452 192.381 144.449 191.917 144.316L192.348 139.306Z" fill="#A02724"/>
<path d="M186.686 137.755C186.6 138.53 186.108 139.109 185.591 138.986C185.073 138.863 184.729 138.26 184.815 137.484C184.901 136.708 185.394 136.13 185.911 136.179C186.428 136.228 186.772 136.979 186.686 137.755Z" fill="#263238"/>
<path d="M185.639 136.253L187.4 135.785C187.4 135.785 186.452 137.115 185.639 136.253Z" fill="#263238"/>
<path d="M196.349 138.678C196.263 139.454 195.771 140.032 195.254 139.909C194.737 139.786 194.392 139.183 194.478 138.407C194.564 137.632 195.057 137.053 195.574 137.102C196.091 137.152 196.435 137.878 196.349 138.678Z" fill="#263238"/>
<path d="M195.352 137.176L197.112 136.708C197.112 136.708 196.115 138.038 195.352 137.176Z" fill="#263238"/>
<path d="M183.177 132.51C183.122 132.513 183.067 132.503 183.016 132.481C182.965 132.46 182.919 132.428 182.882 132.387C182.843 132.35 182.813 132.305 182.792 132.255C182.771 132.205 182.761 132.152 182.761 132.098C182.761 132.044 182.771 131.991 182.792 131.941C182.813 131.892 182.843 131.847 182.882 131.809C183.53 131.294 184.29 130.94 185.1 130.773C185.911 130.606 186.749 130.632 187.547 130.849C187.652 130.876 187.741 130.944 187.795 131.038C187.85 131.131 187.865 131.243 187.837 131.347C187.809 131.452 187.741 131.541 187.647 131.595C187.554 131.649 187.443 131.664 187.338 131.636C186.672 131.46 185.975 131.438 185.299 131.57C184.623 131.702 183.986 131.986 183.436 132.4C183.367 132.468 183.274 132.508 183.177 132.51Z" fill="#263238"/>
<path d="M198.024 133.471C197.973 133.471 197.924 133.461 197.877 133.442C197.831 133.423 197.788 133.395 197.753 133.36C197.332 132.921 196.819 132.583 196.25 132.37C195.681 132.157 195.071 132.074 194.466 132.129C194.413 132.142 194.359 132.144 194.305 132.135C194.252 132.126 194.201 132.107 194.155 132.078C194.109 132.05 194.069 132.012 194.038 131.968C194.007 131.924 193.985 131.874 193.974 131.821C193.955 131.717 193.976 131.61 194.033 131.52C194.09 131.431 194.179 131.367 194.281 131.341C195.011 131.25 195.752 131.327 196.448 131.566C197.143 131.804 197.775 132.199 198.295 132.72C198.358 132.774 198.403 132.847 198.423 132.928C198.444 133.008 198.439 133.094 198.409 133.172C198.38 133.25 198.327 133.317 198.258 133.363C198.189 133.41 198.107 133.435 198.024 133.434V133.471Z" fill="#263238"/>
<path d="M174.781 138.604C174.781 138.604 180.235 131.464 180.382 125.395C180.382 125.395 200.079 120.323 198.417 139.38C198.417 139.38 202.529 122.81 186.402 120.237C170.276 117.664 166.545 139.934 173.944 148.071C173.232 146.56 172.934 144.888 173.081 143.224C173.228 141.561 173.815 139.966 174.781 138.604Z" fill="#263238"/>
<path d="M176.049 140.796C176.106 139.692 175.724 138.612 174.985 137.79C174.247 136.969 173.213 136.473 172.11 136.413C169.155 136.339 166.952 142.137 174.006 144.563C175.015 144.92 175.791 144.033 176.049 140.796Z" fill="#B55B52"/>
<path d="M191.795 148.859C190.599 148.74 189.447 148.344 188.43 147.703C187.413 147.062 186.559 146.193 185.935 145.166C185.88 145.074 185.864 144.965 185.889 144.861C185.914 144.757 185.98 144.668 186.07 144.612C186.165 144.559 186.275 144.544 186.38 144.569C186.485 144.594 186.576 144.658 186.637 144.747C187.197 145.651 187.954 146.417 188.851 146.988C189.749 147.56 190.763 147.921 191.819 148.046C191.878 148.036 191.938 148.039 191.995 148.054C192.052 148.069 192.106 148.097 192.151 148.135C192.196 148.173 192.233 148.221 192.258 148.275C192.283 148.329 192.296 148.387 192.296 148.447C192.296 148.506 192.283 148.564 192.258 148.618C192.233 148.672 192.196 148.72 192.151 148.758C192.106 148.796 192.052 148.824 191.995 148.839C191.938 148.854 191.878 148.857 191.819 148.847L191.795 148.859Z" fill="#263238"/>
<path d="M166.336 133.064L167.025 118.403L164.44 114.352C171.139 111.909 178.387 111.385 185.368 112.838L194.33 122.046C194.33 122.046 177.021 117.738 166.336 133.064Z" fill="#96B1FF"/>
<path opacity="0.6" d="M194.256 122.047C187.732 120.734 180.955 121.749 175.101 124.915C171.585 126.926 168.575 129.714 166.299 133.064L166.989 118.403L164.403 114.365C171.101 111.915 178.351 111.39 185.331 112.851L194.256 122.047Z" fill="white"/>
<path opacity="0.1" d="M175.138 124.915C171.622 126.926 168.611 129.714 166.336 133.064L167.025 118.403L164.44 114.365L175.138 124.915Z" fill="black"/>
<path d="M193.813 198.002L181.22 197.153L182.118 190.124L194.712 190.985L193.813 198.002Z" fill="#96B1FF"/>
<path opacity="0.5" d="M193.136 197.461L182.303 196.722L183.079 190.678L193.912 191.416L193.136 197.461Z" fill="white"/>
<path d="M188.791 188.216L187.572 191.613H189.603V188.216H188.791Z" fill="#263238"/>
<path opacity="0.1" d="M145.347 203.936C158.753 202.631 157.546 184.695 157.546 184.695C155.061 183.587 152.487 182.69 149.852 182.011C149.545 188.007 148.625 193.955 147.107 199.763C146.626 201.196 146.037 202.591 145.347 203.936Z" fill="black"/>
<path d="M275.949 262.288C275.112 264.615 269.991 262.288 269.991 262.288C269.991 262.288 207.207 277.319 178.376 278.76C178.376 278.76 173.526 282.736 172.59 281.64C172.485 281.492 172.41 281.325 172.368 281.148C171.876 279.326 172.824 274.192 172.824 274.192C172.824 274.192 162.975 230.539 161.744 215.102C161.744 215.102 159.467 211.618 160.846 210.264C162.224 208.91 166.213 210.042 166.213 210.042C166.213 210.042 176.628 205.795 205.779 200.329C222.281 197.139 238.958 194.94 255.723 193.743C255.723 193.743 260.155 190.555 261.792 190.616C263.429 190.678 262.543 194.617 262.543 194.617C262.543 194.617 269.178 228.988 273.228 254.446C273.216 254.508 276.737 259.961 275.949 262.288Z" fill="#96B1FF"/>
<path opacity="0.2" d="M270.582 251.135C270.582 251.135 273.536 258.386 273.561 259.826C273.586 261.266 267.16 258.866 267.16 258.866C267.391 253.375 266.978 247.875 265.929 242.48C265.929 242.48 267.96 253.301 263.651 258.263C263.651 258.263 264.624 252.846 263.429 250.359C263.429 250.359 253.987 262.423 223.666 268.111C193.346 273.798 180.838 263.864 180.838 263.864C180.867 265.432 181.257 266.972 181.979 268.364C182.701 269.757 183.734 270.963 184.999 271.89C182.929 270.505 181.175 268.698 179.854 266.587C178.532 264.475 177.672 262.109 177.33 259.641C177.088 264.253 177.932 268.857 179.792 273.084C179.792 273.084 175.963 279.424 172.405 281.172C171.913 279.35 172.861 274.217 172.861 274.217C172.861 274.217 163.013 230.564 161.781 215.126C161.781 215.126 159.504 211.643 160.883 210.288C162.262 208.934 166.25 210.067 166.25 210.067C166.25 210.067 176.665 205.82 205.816 200.354C222.318 197.164 238.996 194.964 255.76 193.768C255.76 193.768 260.192 190.579 261.829 190.641C262.432 191.872 261.287 196.451 261.287 196.451C261.287 196.451 270.151 247.762 270.582 251.135Z" fill="white"/>
<path d="M193.555 217.17L190.982 214.88C190.507 214.455 189.938 214.149 189.321 213.989C188.704 213.828 188.058 213.817 187.436 213.957L181.527 215.299C180.366 215.564 179.285 216.104 178.374 216.873C177.464 217.642 176.751 218.617 176.295 219.718L175.717 221.097C179.718 225.184 187.055 226.661 187.055 226.661L189.098 227.314C189.514 227.459 189.955 227.52 190.395 227.494C190.835 227.468 191.266 227.355 191.662 227.162C192.058 226.968 192.412 226.698 192.703 226.367C192.994 226.036 193.217 225.651 193.358 225.233L194.712 221.195C194.928 220.484 194.933 219.726 194.728 219.012C194.523 218.298 194.115 217.658 193.555 217.17Z" fill="#B55B52"/>
<path d="M153.817 182.196C151.671 190.713 150.372 199.422 149.939 208.196C149.848 211.033 149.917 213.873 150.148 216.702L149.89 215.644C149.754 215.323 149.52 215.188 149.619 215.299C150.941 216.129 152.436 216.643 153.989 216.801C160.114 217.564 166.299 217.724 172.455 217.281C175.668 217.145 178.93 216.887 182.106 216.641C182.811 216.586 183.51 216.794 184.07 217.225C184.63 217.656 185.01 218.28 185.137 218.975C185.264 219.669 185.129 220.387 184.758 220.988C184.387 221.589 183.806 222.032 183.128 222.23C176.661 224.082 170.046 225.375 163.358 226.095C157.941 226.563 152.389 226.957 146.824 225.16C143.858 224.175 140.521 221.762 139.857 218.13C137.825 205.044 139.401 191.823 142.799 179.118C145.089 171.929 155.626 174.896 153.878 182.233L153.817 182.196Z" fill="#B65B52"/>
<path d="M155.786 161.674C146.319 162.684 141.986 169.688 137.973 185.483C141.506 190.678 155.207 194.223 155.207 194.223C155.207 194.223 163.32 170.784 155.786 161.674Z" fill="#96B1FF"/>
<path opacity="0.6" d="M155.786 161.674C146.319 162.684 141.986 169.688 137.973 185.483C141.506 190.678 155.207 194.223 155.207 194.223C155.207 194.223 163.32 170.784 155.786 161.674Z" fill="white"/>
<path d="M484.489 308.92V218.746C484.489 215.163 482.458 212.27 479.947 212.27H333.919C331.457 212.27 329.364 215.163 329.364 218.746V308.92C329.364 312.503 331.408 315.396 333.919 315.396H479.947C482.458 315.396 484.489 312.503 484.489 308.92ZM360.288 301.115C360.288 304.402 358.429 307.074 356.115 307.074H341.342C340.745 307.043 340.164 306.868 339.65 306.564C339.135 306.259 338.702 305.834 338.388 305.326C337.561 304.079 337.131 302.611 337.157 301.115C337.157 297.804 339.028 295.145 341.342 295.145H356.115C356.712 295.175 357.293 295.35 357.808 295.655C358.322 295.959 358.755 296.384 359.07 296.893C359.895 298.144 360.32 299.617 360.288 301.115ZM476.734 301.115C476.734 304.402 474.862 307.074 472.56 307.074H457.702C457.104 307.043 456.523 306.868 456.009 306.564C455.494 306.259 455.061 305.834 454.747 305.326C453.92 304.079 453.49 302.611 453.516 301.115C453.516 297.804 455.387 295.145 457.702 295.145H472.474C473.071 295.175 473.652 295.35 474.167 295.655C474.682 295.959 475.115 296.384 475.429 296.893C476.284 298.134 476.74 299.608 476.734 301.115Z" fill="#96B1FF"/>
<path opacity="0.6" d="M484.489 308.92V218.746C484.489 215.163 482.458 212.27 479.947 212.27H333.919C331.457 212.27 329.364 215.163 329.364 218.746V308.92C329.364 312.503 331.408 315.396 333.919 315.396H479.947C482.458 315.396 484.489 312.503 484.489 308.92ZM360.288 301.115C360.288 304.402 358.429 307.074 356.115 307.074H341.342C340.745 307.043 340.164 306.868 339.65 306.564C339.135 306.259 338.702 305.834 338.388 305.326C337.561 304.079 337.131 302.611 337.157 301.115C337.157 297.804 339.028 295.145 341.342 295.145H356.115C356.712 295.175 357.293 295.35 357.808 295.655C358.322 295.959 358.755 296.384 359.07 296.893C359.895 298.144 360.32 299.617 360.288 301.115ZM476.734 301.115C476.734 304.402 474.862 307.074 472.56 307.074H457.702C457.104 307.043 456.523 306.868 456.009 306.564C455.494 306.259 455.061 305.834 454.747 305.326C453.92 304.079 453.49 302.611 453.516 301.115C453.516 297.804 455.387 295.145 457.702 295.145H472.474C473.071 295.175 473.652 295.35 474.167 295.655C474.682 295.959 475.115 296.384 475.429 296.893C476.284 298.134 476.74 299.608 476.734 301.115Z" fill="white"/>
<path d="M482.052 308.92V218.746C482.052 215.163 480.021 212.27 477.51 212.27H331.482C329.02 212.27 326.927 215.163 326.927 218.746V308.92C326.927 312.503 328.971 315.396 331.482 315.396H477.51C480.021 315.396 482.052 312.503 482.052 308.92ZM357.851 301.115C357.851 304.402 355.992 307.074 353.678 307.074H338.905C338.308 307.043 337.727 306.868 337.213 306.564C336.698 306.259 336.265 305.834 335.951 305.326C335.124 304.079 334.694 302.611 334.72 301.115C334.72 297.804 336.591 295.145 338.905 295.145H353.678C354.275 295.175 354.856 295.35 355.371 295.655C355.885 295.959 356.318 296.384 356.633 296.893C357.458 298.144 357.883 299.617 357.851 301.115ZM474.297 301.115C474.297 304.402 472.425 307.074 470.123 307.074H455.351C454.751 307.045 454.168 306.871 453.651 306.567C453.134 306.262 452.699 305.836 452.384 305.326C451.557 304.079 451.127 302.611 451.153 301.115C451.153 297.804 453.024 295.145 455.338 295.145H470.111C470.708 295.175 471.289 295.35 471.804 295.655C472.318 295.959 472.751 296.384 473.066 296.893C473.895 298.143 474.325 299.616 474.297 301.115Z" fill="#96B1FF"/>
<path opacity="0.7" d="M482.052 308.92V218.746C482.052 215.163 480.021 212.27 477.51 212.27H331.482C329.02 212.27 326.927 215.163 326.927 218.746V308.92C326.927 312.503 328.971 315.396 331.482 315.396H477.51C480.021 315.396 482.052 312.503 482.052 308.92ZM357.851 301.115C357.851 304.402 355.992 307.074 353.678 307.074H338.905C338.308 307.043 337.727 306.868 337.213 306.564C336.698 306.259 336.265 305.834 335.951 305.326C335.124 304.079 334.694 302.611 334.72 301.115C334.72 297.804 336.591 295.145 338.905 295.145H353.678C354.275 295.175 354.856 295.35 355.371 295.655C355.885 295.959 356.318 296.384 356.633 296.893C357.458 298.144 357.883 299.617 357.851 301.115ZM474.297 301.115C474.297 304.402 472.425 307.074 470.123 307.074H455.351C454.751 307.045 454.168 306.871 453.651 306.567C453.134 306.262 452.699 305.836 452.384 305.326C451.557 304.079 451.127 302.611 451.153 301.115C451.153 297.804 453.024 295.145 455.338 295.145H470.111C470.708 295.175 471.289 295.35 471.804 295.655C472.318 295.959 472.751 296.384 473.066 296.893C473.895 298.143 474.325 299.616 474.297 301.115Z" fill="white"/>
<path opacity="0.1" d="M470.665 233.801H338.314C336.309 233.801 334.683 235.427 334.683 237.433V270.782C334.683 272.788 336.309 274.414 338.314 274.414H470.665C472.67 274.414 474.296 272.788 474.296 270.782V237.433C474.296 235.427 472.67 233.801 470.665 233.801Z" fill="black"/>
<path d="M482.052 224.63H326.927V226.575H482.052V224.63Z" fill="#96B1FF"/>
<path d="M302.232 428.677L307.551 433.995H310.985L312.499 425.452L302.232 428.677Z" fill="#96B1FF"/>
<path d="M316.746 422.436H312.72C308.042 422.436 304.25 427.163 304.25 433.01C304.25 438.858 308.042 443.585 312.72 443.585H316.746C321.411 443.585 325.203 438.846 325.203 433.01C325.203 427.175 321.411 422.436 316.746 422.436Z" fill="#263238"/>
<path opacity="0.3" d="M316.746 443.585C321.424 443.585 325.216 438.851 325.216 433.01C325.216 427.17 321.424 422.436 316.746 422.436C312.068 422.436 308.276 427.17 308.276 433.01C308.276 438.851 312.068 443.585 316.746 443.585Z" fill="white"/>
<path opacity="0.3" d="M316.746 440.569C319.752 440.569 322.188 437.185 322.188 433.01C322.188 428.836 319.752 425.452 316.746 425.452C313.741 425.452 311.305 428.836 311.305 433.01C311.305 437.185 313.741 440.569 316.746 440.569Z" fill="white"/>
<path d="M318.297 432.013V423.482C318.299 422.667 318.139 421.86 317.826 421.108C317.513 420.356 317.054 419.673 316.475 419.1L311.551 414.175H302.257V428.702H310.283L314.998 433.417C315.192 433.608 315.423 433.757 315.678 433.855C315.932 433.952 316.203 433.996 316.475 433.983C316.973 433.948 317.438 433.725 317.777 433.359C318.116 432.993 318.302 432.512 318.297 432.013Z" fill="#96B1FF"/>
<path opacity="0.3" d="M318.298 423.482V432.013C318.298 432.511 318.106 432.99 317.762 433.35C317.418 433.71 316.949 433.924 316.451 433.946C316.179 433.964 315.905 433.922 315.651 433.824C315.396 433.727 315.165 433.575 314.974 433.38L310.259 428.677H302.232V414.151H311.527L316.451 419.075C317.037 419.649 317.502 420.335 317.819 421.092C318.137 421.849 318.299 422.661 318.298 423.482Z" fill="white"/>
<path opacity="0.2" d="M318.298 423.482V432.013C318.298 432.511 318.106 432.99 317.762 433.35C317.418 433.71 316.949 433.924 316.451 433.946C316.179 433.964 315.905 433.922 315.65 433.824C315.395 433.727 315.165 433.575 314.974 433.38L310.259 428.677V414.151H311.49L316.414 419.075C317.007 419.646 317.479 420.331 317.802 421.088C318.126 421.845 318.294 422.659 318.298 423.482Z" fill="white"/>
<path d="M319.811 398.923H302.158C301.39 398.923 300.767 399.545 300.767 400.314V413.806C300.767 414.574 301.39 415.197 302.158 415.197H319.811C320.58 415.197 321.203 414.574 321.203 413.806V400.314C321.203 399.545 320.58 398.923 319.811 398.923Z" fill="#96B1FF"/>
<path opacity="0.2" d="M321.203 400.314V413.855C321.204 414.038 321.169 414.22 321.1 414.39C321.031 414.559 320.928 414.713 320.799 414.843C320.669 414.972 320.515 415.074 320.346 415.144C320.176 415.213 319.995 415.248 319.811 415.246H302.17C301.987 415.248 301.806 415.213 301.636 415.144C301.467 415.074 301.313 414.972 301.183 414.843C301.054 414.713 300.951 414.559 300.882 414.39C300.813 414.22 300.778 414.038 300.779 413.855V400.314C300.779 399.945 300.926 399.591 301.187 399.33C301.448 399.069 301.802 398.923 302.17 398.923H319.824C320.191 398.926 320.541 399.074 320.799 399.334C321.058 399.595 321.203 399.947 321.203 400.314Z" fill="white"/>
<path opacity="0.2" d="M321.203 400.314V413.855C321.204 414.038 321.17 414.22 321.1 414.39C321.031 414.559 320.928 414.713 320.799 414.843C320.669 414.972 320.515 415.074 320.346 415.144C320.176 415.213 319.995 415.248 319.812 415.246H310.271C309.902 415.246 309.548 415.1 309.287 414.839C309.026 414.578 308.88 414.224 308.88 413.855V400.314C308.883 399.946 309.031 399.594 309.291 399.334C309.551 399.073 309.903 398.926 310.271 398.923H319.824C320.191 398.926 320.541 399.074 320.8 399.334C321.058 399.595 321.203 399.947 321.203 400.314Z" fill="white"/>
<path d="M113.893 400.301H306.614C306.814 400.301 307.005 400.38 307.145 400.521C307.286 400.662 307.365 400.853 307.365 401.052V412.599C307.365 412.799 307.286 412.99 307.145 413.13C307.005 413.271 306.814 413.35 306.614 413.35H113.893V400.301Z" fill="#96B1FF"/>
<path opacity="0.3" d="M113.893 400.301H306.614C306.814 400.301 307.005 400.38 307.145 400.521C307.286 400.662 307.365 400.853 307.365 401.052V412.599C307.365 412.799 307.286 412.99 307.145 413.13C307.005 413.271 306.814 413.35 306.614 413.35H113.893V400.301Z" fill="white"/>
<path d="M105.141 428.677L110.459 433.995H113.893L115.408 425.452L105.141 428.677Z" fill="#96B1FF"/>
<path d="M119.655 422.436H115.617C110.951 422.436 107.16 427.163 107.16 433.01C107.16 438.858 110.951 443.585 115.617 443.585H119.655C124.321 443.585 128.112 438.846 128.112 433.01C128.112 427.175 124.321 422.436 119.655 422.436Z" fill="#263238"/>
<path opacity="0.3" d="M119.655 443.585C124.332 443.585 128.124 438.851 128.124 433.01C128.124 427.17 124.332 422.436 119.655 422.436C114.977 422.436 111.185 427.17 111.185 433.01C111.185 438.851 114.977 443.585 119.655 443.585Z" fill="white"/>
<path opacity="0.3" d="M119.655 440.569C122.66 440.569 125.096 437.185 125.096 433.01C125.096 428.836 122.66 425.452 119.655 425.452C116.65 425.452 114.213 428.836 114.213 433.01C114.213 437.185 116.65 440.569 119.655 440.569Z" fill="white"/>
<path d="M121.206 432.013V423.482C121.207 422.667 121.047 421.86 120.734 421.108C120.422 420.356 119.963 419.673 119.384 419.1L114.46 414.175H105.141V428.702H113.167L117.931 433.392C118.125 433.583 118.356 433.733 118.611 433.83C118.865 433.927 119.137 433.971 119.409 433.958C119.897 433.918 120.353 433.696 120.686 433.336C121.019 432.976 121.204 432.504 121.206 432.013Z" fill="#96B1FF"/>
<path opacity="0.3" d="M121.206 423.482V432.013C121.206 432.511 121.015 432.99 120.671 433.35C120.327 433.71 119.857 433.924 119.359 433.946C119.091 433.95 118.825 433.898 118.579 433.791C118.333 433.685 118.112 433.528 117.931 433.331L113.216 428.628H105.141V414.101H114.435L119.359 419.026C119.951 419.606 120.42 420.3 120.737 421.065C121.055 421.831 121.214 422.653 121.206 423.482Z" fill="white"/>
<path opacity="0.2" d="M121.206 423.482V432.013C121.206 432.511 121.015 432.99 120.671 433.35C120.327 433.71 119.857 433.924 119.359 433.946C119.091 433.95 118.825 433.898 118.579 433.791C118.333 433.685 118.112 433.528 117.931 433.331L113.216 428.628V414.101H114.447L119.372 419.026C119.961 419.607 120.428 420.301 120.743 421.067C121.058 421.833 121.216 422.654 121.206 423.482Z" fill="white"/>
<path d="M122.72 398.923H105.066C104.298 398.923 103.675 399.545 103.675 400.314V413.806C103.675 414.574 104.298 415.197 105.066 415.197H122.72C123.488 415.197 124.111 414.574 124.111 413.806V400.314C124.111 399.545 123.488 398.923 122.72 398.923Z" fill="#96B1FF"/>
<path opacity="0.2" d="M124.086 400.314V413.855C124.088 414.038 124.053 414.22 123.984 414.39C123.914 414.559 123.812 414.713 123.682 414.843C123.553 414.972 123.399 415.074 123.229 415.144C123.06 415.213 122.878 415.248 122.695 415.246H105.079C104.896 415.248 104.714 415.213 104.544 415.144C104.375 415.074 104.221 414.972 104.091 414.843C103.962 414.713 103.859 414.559 103.79 414.39C103.721 414.22 103.686 414.038 103.688 413.855V400.314C103.688 399.945 103.834 399.591 104.095 399.33C104.356 399.069 104.71 398.923 105.079 398.923H122.72C123.084 398.929 123.432 399.078 123.687 399.339C123.943 399.599 124.086 399.949 124.086 400.314Z" fill="white"/>
<path opacity="0.2" d="M124.086 400.314V413.855C124.088 414.038 124.053 414.22 123.984 414.39C123.914 414.559 123.812 414.713 123.683 414.843C123.553 414.972 123.399 415.074 123.23 415.144C123.06 415.213 122.878 415.248 122.695 415.246H113.179C112.991 415.248 112.805 415.212 112.631 415.14C112.458 415.067 112.301 414.961 112.17 414.826C112.038 414.691 111.936 414.532 111.868 414.356C111.801 414.181 111.769 413.994 111.776 413.806V400.264C111.779 399.896 111.927 399.544 112.187 399.284C112.447 399.024 112.799 398.877 113.167 398.873H122.708C122.893 398.875 123.077 398.914 123.248 398.987C123.418 399.061 123.572 399.168 123.701 399.302C123.829 399.437 123.93 399.595 123.996 399.769C124.062 399.943 124.093 400.128 124.086 400.314Z" fill="white"/>
<path d="M451.128 386.144C450.675 386.141 450.228 386.049 449.811 385.873L374.286 353.029L298.773 385.873C298.269 386.092 297.718 386.182 297.171 386.134C296.624 386.087 296.097 385.904 295.637 385.603C295.178 385.301 294.801 384.89 294.541 384.406C294.28 383.923 294.144 383.382 294.144 382.833V316.06C294.134 315.813 294.155 315.564 294.206 315.322C294.289 314.937 294.439 314.571 294.649 314.238C294.898 313.833 295.235 313.488 295.634 313.229C296.038 312.962 296.496 312.785 296.976 312.712C297.16 312.7 297.345 312.7 297.53 312.712H451.054C451.239 312.7 451.424 312.7 451.608 312.712C452.079 312.781 452.529 312.954 452.925 313.217C453.338 313.478 453.684 313.832 453.935 314.251C454.148 314.576 454.294 314.94 454.366 315.322C454.421 315.564 454.445 315.812 454.439 316.06V382.857C454.436 383.735 454.086 384.575 453.466 385.195C452.846 385.816 452.005 386.166 451.128 386.169V386.144ZM382.608 349.41L447.853 377.785V321.046L382.608 349.41ZM300.779 321.095V377.835L366.025 349.459L300.779 321.095ZM313.385 319.36L374.298 345.852L435.223 319.36H313.385Z" fill="#263238"/>
<g opacity="0.3">
<path d="M451.128 386.144C450.675 386.141 450.228 386.049 449.811 385.873L374.286 353.029L298.773 385.873C298.269 386.092 297.718 386.182 297.171 386.134C296.624 386.087 296.097 385.904 295.637 385.603C295.178 385.301 294.801 384.89 294.541 384.406C294.28 383.923 294.144 383.382 294.144 382.833V316.06C294.134 315.813 294.155 315.564 294.206 315.322C294.289 314.937 294.439 314.571 294.649 314.238C294.898 313.833 295.235 313.488 295.634 313.229C296.038 312.962 296.496 312.785 296.976 312.712C297.16 312.7 297.345 312.7 297.53 312.712H451.054C451.239 312.7 451.424 312.7 451.608 312.712C452.079 312.781 452.529 312.954 452.925 313.217C453.338 313.478 453.684 313.832 453.935 314.251C454.148 314.576 454.294 314.94 454.366 315.322C454.421 315.564 454.445 315.812 454.439 316.06V382.857C454.436 383.735 454.086 384.575 453.466 385.195C452.846 385.816 452.005 386.166 451.128 386.169V386.144ZM382.608 349.41L447.853 377.785V321.046L382.608 349.41ZM300.779 321.095V377.835L366.025 349.459L300.779 321.095ZM313.385 319.36L374.298 345.852L435.223 319.36H313.385Z" fill="white"/>
</g>
<path d="M264.574 401.446C263.837 401.449 263.121 401.206 262.538 400.755C261.955 400.305 261.539 399.673 261.356 398.96C261.172 398.247 261.231 397.493 261.524 396.817C261.817 396.142 262.327 395.583 262.973 395.229L343.509 350.911C343.999 350.64 344.549 350.496 345.109 350.493H412.965L466.934 277.245C467.464 276.564 468.239 276.116 469.095 275.998C469.95 275.879 470.818 276.1 471.513 276.612C472.208 277.124 472.676 277.887 472.816 278.739C472.956 279.591 472.759 280.464 472.265 281.172L417.298 355.774C416.989 356.192 416.587 356.531 416.122 356.764C415.658 356.997 415.146 357.117 414.627 357.116H345.959L266.162 401.052C265.675 401.318 265.128 401.454 264.574 401.446Z" fill="#263238"/>
<g opacity="0.6">
<path d="M264.574 401.446C263.837 401.449 263.121 401.206 262.538 400.755C261.955 400.305 261.539 399.673 261.356 398.96C261.172 398.247 261.231 397.493 261.524 396.817C261.817 396.142 262.327 395.583 262.973 395.229L343.509 350.911C343.999 350.64 344.549 350.496 345.109 350.493H412.965L466.934 277.245C467.464 276.564 468.239 276.116 469.095 275.998C469.95 275.879 470.818 276.1 471.513 276.612C472.208 277.124 472.676 277.887 472.816 278.739C472.956 279.591 472.759 280.464 472.265 281.172L417.298 355.774C416.989 356.192 416.587 356.531 416.122 356.764C415.658 356.997 415.146 357.117 414.627 357.116H345.959L266.162 401.052C265.675 401.318 265.128 401.454 264.574 401.446Z" fill="white"/>
</g>
<path d="M264.611 410.544C263.703 410.544 262.831 410.188 262.182 409.553C261.533 408.918 261.159 408.054 261.139 407.146L260.548 382.919C260.537 382.456 260.618 381.995 260.788 381.564C260.957 381.133 261.211 380.74 261.534 380.408C261.858 380.077 262.244 379.813 262.671 379.633C263.098 379.454 263.557 379.361 264.02 379.361H451.14C451.74 379.36 452.331 379.514 452.853 379.81C453.375 380.106 453.812 380.532 454.119 381.048L467.55 403.551C467.784 403.943 467.938 404.377 468.003 404.829C468.069 405.281 468.045 405.741 467.933 406.183C467.821 406.626 467.623 407.042 467.351 407.407C467.078 407.773 466.736 408.082 466.344 408.315C465.951 408.549 465.517 408.703 465.066 408.769C464.614 408.835 464.154 408.811 463.712 408.699C463.269 408.587 462.853 408.389 462.487 408.116C462.121 407.843 461.813 407.501 461.579 407.109L449.183 386.304H267.578L268.095 406.974C268.115 407.896 267.768 408.788 267.131 409.455C266.494 410.122 265.619 410.509 264.697 410.531L264.611 410.544Z" fill="#263238"/>
<g opacity="0.5">
<path d="M264.611 410.544C263.703 410.544 262.831 410.188 262.182 409.553C261.533 408.918 261.159 408.054 261.14 407.146L260.549 382.919C260.537 382.456 260.619 381.995 260.788 381.564C260.957 381.133 261.211 380.74 261.535 380.408C261.858 380.077 262.245 379.813 262.672 379.633C263.099 379.454 263.557 379.361 264.02 379.361H451.141C451.741 379.36 452.331 379.514 452.853 379.81C453.376 380.106 453.812 380.532 454.12 381.048L467.55 403.551C467.784 403.943 467.938 404.378 468.004 404.829C468.07 405.281 468.046 405.741 467.934 406.183C467.822 406.626 467.624 407.042 467.351 407.408C467.078 407.773 466.736 408.082 466.344 408.316C465.952 408.549 465.518 408.703 465.066 408.769C464.615 408.835 464.154 408.811 463.712 408.699C463.27 408.587 462.854 408.389 462.488 408.116C462.122 407.843 461.813 407.501 461.58 407.109L449.183 386.304H267.578L268.095 406.974C268.115 407.896 267.769 408.788 267.132 409.455C266.495 410.122 265.619 410.509 264.698 410.531L264.611 410.544Z" fill="white"/>
</g>
<path d="M472.869 237.802C472.582 236.848 471.994 236.013 471.193 235.42C470.392 234.828 469.421 234.511 468.425 234.516H333.994C333.28 234.517 332.576 234.682 331.936 234.998C331.296 235.314 330.736 235.772 330.301 236.337L263.282 324.53C262.85 325.1 262.292 325.563 261.651 325.881C261.01 326.199 260.304 326.365 259.589 326.364H195.722C194.933 326.368 194.158 326.571 193.469 326.955L126.315 364.392C125.501 364.823 124.839 365.493 124.416 366.311C123.994 367.13 123.832 368.058 123.951 368.971C124.222 371.125 125.97 388.409 126.34 390.231C126.54 391.284 127.106 392.232 127.937 392.907C128.768 393.583 129.811 393.943 130.882 393.925H257.878C258.67 393.927 259.449 393.728 260.143 393.346L341.872 347.859C342.561 347.474 343.336 347.271 344.125 347.268H407.992C408.706 347.266 409.41 347.101 410.05 346.785C410.69 346.469 411.25 346.011 411.685 345.446L474.469 262.867C475.191 261.932 475.526 260.755 475.405 259.58C475.331 259.284 473.275 239.144 472.869 237.802Z" fill="#96B1FF"/>
<path opacity="0.5" d="M472.869 237.802C472.582 236.848 471.994 236.013 471.193 235.42C470.392 234.828 469.421 234.511 468.425 234.516H333.994C333.28 234.517 332.576 234.682 331.936 234.998C331.296 235.314 330.736 235.772 330.301 236.337L263.282 324.53C262.85 325.1 262.292 325.563 261.651 325.881C261.01 326.199 260.304 326.365 259.589 326.364H195.722C194.933 326.368 194.158 326.571 193.469 326.955L126.315 364.392C125.501 364.823 124.839 365.493 124.416 366.311C123.994 367.13 123.832 368.058 123.951 368.971C124.222 371.125 125.97 388.409 126.34 390.231C126.54 391.284 127.106 392.232 127.937 392.907C128.768 393.583 129.811 393.943 130.882 393.925H257.878C258.67 393.927 259.449 393.728 260.143 393.346L341.872 347.859C342.561 347.474 343.336 347.271 344.125 347.268H407.992C408.706 347.266 409.41 347.101 410.05 346.785C410.69 346.469 411.25 346.011 411.685 345.446L474.469 262.867C475.191 261.932 475.526 260.755 475.405 259.58C475.331 259.284 473.275 239.144 472.869 237.802Z" fill="white"/>
<g opacity="0.7">
<path d="M256.696 390.059C255.413 390.059 254.166 389.633 253.151 388.849C252.136 388.064 251.409 386.965 251.086 385.724C250.762 384.482 250.859 383.169 251.362 381.988C251.865 380.808 252.745 379.828 253.864 379.201L329.771 336.964C331.113 336.216 332.697 336.032 334.174 336.452C335.652 336.872 336.902 337.862 337.65 339.204C338.397 340.546 338.581 342.13 338.161 343.608C337.741 345.085 336.751 346.335 335.409 347.083L259.502 389.333C258.644 389.809 257.678 390.059 256.696 390.059Z" fill="white"/>
</g>
<g opacity="0.7">
<path d="M396.395 343.759H347.596C346.058 343.759 344.583 343.148 343.496 342.061C342.409 340.973 341.798 339.499 341.798 337.961C341.798 336.423 342.409 334.948 343.496 333.861C344.583 332.773 346.058 332.163 347.596 332.163H396.395C397.933 332.163 399.408 332.773 400.495 333.861C401.582 334.948 402.193 336.423 402.193 337.961C402.193 339.499 401.582 340.973 400.495 342.061C399.408 343.148 397.933 343.759 396.395 343.759Z" fill="white"/>
</g>
<g opacity="0.7">
<path d="M410.564 338.872C409.487 338.87 408.431 338.568 407.515 337.999C406.599 337.431 405.86 336.618 405.381 335.653C404.901 334.687 404.7 333.608 404.801 332.534C404.901 331.461 405.298 330.437 405.948 329.577L462.86 254.68C463.32 254.074 463.896 253.564 464.554 253.18C465.211 252.797 465.938 252.546 466.693 252.443C467.447 252.34 468.214 252.387 468.951 252.581C469.687 252.775 470.378 253.111 470.985 253.572C471.591 254.033 472.1 254.608 472.484 255.266C472.868 255.924 473.118 256.651 473.221 257.405C473.324 258.16 473.277 258.927 473.084 259.663C472.89 260.4 472.553 261.091 472.092 261.697L415.181 336.582C414.641 337.294 413.943 337.872 413.142 338.269C412.341 338.666 411.459 338.873 410.564 338.872Z" fill="white"/>
</g>
<path d="M467.07 218.093C466.783 217.139 466.195 216.304 465.394 215.711C464.593 215.119 463.622 214.801 462.626 214.806H328.195C327.481 214.808 326.777 214.973 326.137 215.289C325.497 215.605 324.937 216.063 324.502 216.628L257.483 304.821C257.051 305.391 256.493 305.854 255.852 306.172C255.211 306.49 254.505 306.656 253.79 306.655H189.923C189.134 306.659 188.359 306.862 187.67 307.246L120.516 344.621C119.701 345.05 119.038 345.72 118.617 346.539C118.197 347.359 118.039 348.288 118.165 349.2C118.423 351.355 120.171 368.639 120.541 370.461C120.744 371.514 121.312 372.462 122.145 373.138C122.978 373.813 124.023 374.173 125.096 374.154H252.116C252.904 374.155 253.679 373.956 254.369 373.575L336.098 328.026C336.787 327.642 337.562 327.439 338.351 327.435H402.218C402.932 327.435 403.637 327.271 404.277 326.955C404.918 326.639 405.477 326.18 405.911 325.613L468.695 243.034C469.417 242.099 469.752 240.923 469.63 239.747C469.532 239.575 467.476 219.435 467.07 218.093Z" fill="#263238"/>
<path opacity="0.2" d="M467.07 218.093C466.783 217.139 466.195 216.304 465.394 215.711C464.593 215.119 463.622 214.801 462.626 214.806H328.195C327.481 214.808 326.777 214.973 326.137 215.289C325.497 215.605 324.937 216.063 324.502 216.628L257.483 304.821C257.051 305.391 256.493 305.854 255.852 306.172C255.211 306.49 254.505 306.656 253.79 306.655H189.923C189.134 306.659 188.359 306.862 187.67 307.246L120.516 344.621C119.701 345.05 119.038 345.72 118.617 346.539C118.197 347.359 118.039 348.288 118.165 349.2C118.423 351.355 120.171 368.639 120.541 370.461C120.744 371.514 121.312 372.462 122.145 373.138C122.978 373.813 124.023 374.173 125.096 374.154H252.116C252.904 374.155 253.679 373.956 254.369 373.575L336.098 328.026C336.787 327.642 337.562 327.439 338.351 327.435H402.218C402.932 327.435 403.637 327.271 404.277 326.955C404.918 326.639 405.477 326.18 405.911 325.613L468.695 243.034C469.417 242.099 469.752 240.923 469.63 239.747C469.532 239.575 467.476 219.435 467.07 218.093Z" fill="white"/>
<path opacity="0.2" d="M466.319 222.254L403.535 304.821C403.104 305.391 402.545 305.854 401.904 306.172C401.264 306.49 400.558 306.656 399.842 306.655H336.012C335.219 306.658 334.44 306.861 333.747 307.246L252.018 352.721C251.331 353.111 250.554 353.315 249.765 353.312H122.769C121.743 353.309 120.747 352.966 119.937 352.337C119.127 351.708 118.547 350.829 118.29 349.836C118.033 348.842 118.112 347.792 118.514 346.849C118.917 345.905 119.621 345.122 120.516 344.621L187.67 307.246C188.359 306.862 189.134 306.659 189.923 306.655H253.79C254.506 306.656 255.212 306.49 255.852 306.172C256.493 305.854 257.051 305.391 257.483 304.821L324.502 216.665C324.938 216.1 325.497 215.642 326.137 215.326C326.777 215.01 327.481 214.845 328.195 214.843H462.626C463.484 214.849 464.323 215.092 465.051 215.546C465.779 216 466.367 216.646 466.749 217.414C467.132 218.182 467.294 219.041 467.218 219.895C467.142 220.749 466.831 221.566 466.319 222.254Z" fill="white"/>
<path d="M391.828 326.118C391.843 326.451 391.791 326.783 391.674 327.094C391.557 327.406 391.378 327.691 391.147 327.931C390.917 328.172 390.641 328.363 390.335 328.494C390.028 328.624 389.699 328.691 389.366 328.691H338.29C337.695 328.689 337.109 328.842 336.591 329.134L254.911 374.609C254.041 375.082 253.068 375.331 252.079 375.336H125.084C123.741 375.355 122.434 374.898 121.395 374.047C120.356 373.195 119.653 372.003 119.409 370.682C119.162 369.451 118.411 362.496 117.599 354.839C117.451 353.423 117.328 352.179 117.217 351.145C117.106 350.111 117.057 349.619 117.008 349.299C116.861 348.156 117.064 346.995 117.589 345.969C118.114 344.943 118.937 344.099 119.95 343.55L187.104 306.187C187.969 305.704 188.944 305.449 189.936 305.449H388.467C389.1 305.448 389.708 305.69 390.166 306.126C390.625 306.561 390.898 307.156 390.93 307.788L391.828 326.118Z" fill="#96B1FF"/>
<g opacity="0.2">
<path d="M333.686 305.498C333.098 305.505 332.519 305.653 332 305.929L250.27 351.416C249.408 351.898 248.438 352.152 247.451 352.155H120.455C119.304 352.172 118.174 351.837 117.218 351.195C117.119 350.308 117.058 349.668 117.008 349.348C116.862 348.205 117.064 347.044 117.589 346.018C118.114 344.992 118.938 344.149 119.951 343.599L187.105 306.237C187.97 305.753 188.945 305.499 189.936 305.498H333.686Z" fill="white"/>
</g>
<path d="M239.805 299.638H93.8024C91.3402 299.638 89.2598 302.531 89.2598 306.113V396.288C89.2598 399.87 91.3033 402.763 93.8024 402.763H239.805C242.267 402.763 244.348 399.87 244.348 396.288V306.113C244.385 302.531 242.341 299.638 239.805 299.638ZM118.928 318.104C118.614 318.613 118.181 319.038 117.666 319.342C117.152 319.647 116.571 319.822 115.974 319.852H101.201C98.8866 319.852 97.0154 317.193 97.0154 313.881C96.99 312.386 97.4192 310.918 98.2465 309.671C98.5606 309.162 98.9936 308.737 99.5083 308.433C100.023 308.128 100.604 307.954 101.201 307.923H115.974C118.288 307.923 120.147 310.594 120.147 313.881C120.197 315.389 119.785 316.875 118.965 318.141L118.928 318.104ZM235.373 318.104C235.059 318.613 234.626 319.038 234.112 319.342C233.597 319.647 233.016 319.822 232.419 319.852H217.646C215.344 319.852 213.473 317.193 213.473 313.881C213.448 312.386 213.877 310.918 214.704 309.671C215.018 309.162 215.451 308.737 215.966 308.433C216.48 308.128 217.061 307.954 217.659 307.923H232.431C234.733 307.923 236.604 310.594 236.604 313.881C236.645 315.389 236.229 316.874 235.41 318.141L235.373 318.104Z" fill="#96B1FF"/>
<path opacity="0.6" d="M239.805 299.638H93.8024C91.3402 299.638 89.2598 302.531 89.2598 306.113V396.288C89.2598 399.87 91.3033 402.763 93.8024 402.763H239.805C242.267 402.763 244.348 399.87 244.348 396.288V306.113C244.385 302.531 242.341 299.638 239.805 299.638ZM118.928 318.104C118.614 318.613 118.181 319.038 117.666 319.342C117.152 319.647 116.571 319.822 115.974 319.852H101.201C98.8866 319.852 97.0154 317.193 97.0154 313.881C96.99 312.386 97.4192 310.918 98.2465 309.671C98.5606 309.162 98.9936 308.737 99.5083 308.433C100.023 308.128 100.604 307.954 101.201 307.923H115.974C118.288 307.923 120.147 310.594 120.147 313.881C120.197 315.389 119.785 316.875 118.965 318.141L118.928 318.104ZM235.373 318.104C235.059 318.613 234.626 319.038 234.112 319.342C233.597 319.647 233.016 319.822 232.419 319.852H217.646C215.344 319.852 213.473 317.193 213.473 313.881C213.448 312.386 213.877 310.918 214.704 309.671C215.018 309.162 215.451 308.737 215.966 308.433C216.48 308.128 217.061 307.954 217.659 307.923H232.431C234.733 307.923 236.604 310.594 236.604 313.881C236.645 315.389 236.229 316.874 235.41 318.141L235.373 318.104Z" fill="white"/>
<path d="M237.405 299.638H91.3648C88.9027 299.638 86.8223 302.531 86.8223 306.113V396.288C86.8223 399.87 88.8658 402.763 91.3648 402.763H237.405C239.867 402.763 241.947 399.87 241.947 396.288V306.113C241.947 302.531 239.904 299.638 237.405 299.638ZM116.528 318.104C116.212 318.614 115.777 319.04 115.26 319.345C114.743 319.649 114.16 319.824 113.561 319.852H98.7881C96.4737 319.852 94.6025 317.193 94.6025 313.881C94.5771 312.386 95.0064 310.918 95.8336 309.671C96.1477 309.162 96.5807 308.737 97.0954 308.433C97.61 308.128 98.1909 307.954 98.7881 307.923H113.561C115.875 307.923 117.746 310.594 117.746 313.881C117.785 315.392 117.36 316.879 116.528 318.141V318.104ZM232.973 318.104C232.659 318.613 232.226 319.038 231.711 319.342C231.196 319.647 230.616 319.822 230.018 319.852H215.184C212.882 319.852 211.011 317.193 211.011 313.881C210.985 312.386 211.415 310.918 212.242 309.671C212.556 309.162 212.989 308.737 213.504 308.433C214.018 308.128 214.599 307.954 215.196 307.923H229.969C232.271 307.923 234.142 310.594 234.142 313.881C234.191 315.387 233.783 316.871 232.973 318.141V318.104Z" fill="#96B1FF"/>
<path opacity="0.7" d="M237.405 299.638H91.3648C88.9027 299.638 86.8223 302.531 86.8223 306.113V396.288C86.8223 399.87 88.8658 402.763 91.3648 402.763H237.405C239.867 402.763 241.947 399.87 241.947 396.288V306.113C241.947 302.531 239.904 299.638 237.405 299.638ZM116.528 318.104C116.212 318.614 115.777 319.04 115.26 319.345C114.743 319.649 114.16 319.824 113.561 319.852H98.7881C96.4737 319.852 94.6025 317.193 94.6025 313.881C94.5771 312.386 95.0064 310.918 95.8336 309.671C96.1477 309.162 96.5807 308.737 97.0954 308.433C97.61 308.128 98.1909 307.954 98.7881 307.923H113.561C115.875 307.923 117.746 310.594 117.746 313.881C117.785 315.392 117.36 316.879 116.528 318.141V318.104ZM232.973 318.104C232.659 318.613 232.226 319.038 231.711 319.342C231.196 319.647 230.616 319.822 230.018 319.852H215.184C212.882 319.852 211.011 317.193 211.011 313.881C210.985 312.386 211.415 310.918 212.242 309.671C212.556 309.162 212.989 308.737 213.504 308.433C214.018 308.128 214.599 307.954 215.196 307.923H229.969C232.271 307.923 234.142 310.594 234.142 313.881C234.191 315.387 233.783 316.871 232.973 318.141V318.104Z" fill="white"/>
<path opacity="0.1" d="M230.56 340.62H98.2097C96.2041 340.62 94.5781 342.246 94.5781 344.251V377.601C94.5781 379.606 96.2041 381.232 98.2097 381.232H230.56C232.566 381.232 234.192 379.606 234.192 377.601V344.251C234.192 342.246 232.566 340.62 230.56 340.62Z" fill="black"/>
<path d="M241.947 388.471H86.8223V390.416H241.947V388.471Z" fill="#96B1FF"/>
<path d="M136.052 297.151V345.741H184.408V297.151H136.052ZM167.469 309.117H153.041V299.65H167.469V309.117Z" fill="#96B1FF"/>
<path d="M146.639 318.387H136.52V343.821H146.639V318.387Z" fill="#96B1FF"/>
<path opacity="0.2" d="M146.639 318.387H136.52V343.821H146.639V318.387Z" fill="black"/>
<path d="M184.014 318.387H173.895V343.821H184.014V318.387Z" fill="#96B1FF"/>
<path opacity="0.2" d="M184.014 318.387H173.895V343.821H184.014V318.387Z" fill="black"/>
<path d="M144.202 318.387H134.083V343.821H144.202V318.387Z" fill="#96B1FF"/>
<path opacity="0.2" d="M144.202 318.387H134.083V343.821H144.202V318.387Z" fill="white"/>
<path d="M181.576 318.387H171.457V343.821H181.576V318.387Z" fill="#96B1FF"/>
<path opacity="0.2" d="M181.576 318.387H171.457V343.821H181.576V318.387Z" fill="white"/>
<path d="M188.544 297.151H182.007V299.638H188.544V297.151Z" fill="#96B1FF"/>
<path d="M452.95 428.677L458.268 433.995H461.703L463.217 425.452L452.95 428.677Z" fill="#96B1FF"/>
<path d="M467.464 422.436H463.426C458.76 422.436 454.969 427.163 454.969 433.01C454.969 438.858 458.76 443.585 463.426 443.585H467.464C472.13 443.585 475.921 438.846 475.921 433.01C475.921 427.175 472.13 422.436 467.464 422.436Z" fill="#263238"/>
<path opacity="0.3" d="M467.464 443.585C472.142 443.585 475.934 438.851 475.934 433.01C475.934 427.17 472.142 422.436 467.464 422.436C462.787 422.436 458.995 427.17 458.995 433.01C458.995 438.851 462.787 443.585 467.464 443.585Z" fill="white"/>
<path opacity="0.3" d="M467.464 440.569C470.469 440.569 472.905 437.185 472.905 433.01C472.905 428.836 470.469 425.452 467.464 425.452C464.459 425.452 462.022 428.836 462.022 433.01C462.022 437.185 464.459 440.569 467.464 440.569Z" fill="white"/>
<path d="M469.015 432.013V423.482C469.017 422.667 468.856 421.86 468.544 421.108C468.231 420.356 467.772 419.673 467.193 419.1L462.269 414.175H452.975V428.702H461.001L465.716 433.417C465.91 433.608 466.141 433.757 466.395 433.855C466.65 433.952 466.921 433.996 467.193 433.983C467.691 433.948 468.156 433.725 468.495 433.359C468.833 432.993 469.02 432.512 469.015 432.013Z" fill="#96B1FF"/>
<path opacity="0.7" d="M469.015 423.482V432.013C469.016 432.511 468.824 432.99 468.48 433.35C468.136 433.71 467.666 433.924 467.169 433.946C466.896 433.964 466.623 433.922 466.368 433.824C466.113 433.727 465.882 433.575 465.692 433.38L460.977 428.677H452.95V414.151H462.245L467.169 419.075C467.755 419.649 468.22 420.335 468.537 421.092C468.854 421.849 469.017 422.661 469.015 423.482Z" fill="white"/>
<path opacity="0.2" d="M469.015 423.482V432.013C469.016 432.511 468.824 432.99 468.48 433.35C468.136 433.71 467.666 433.924 467.169 433.946C466.896 433.964 466.623 433.922 466.368 433.824C466.113 433.727 465.882 433.575 465.691 433.38L460.977 428.677V414.151H462.208L467.132 419.075C467.725 419.646 468.197 420.331 468.52 421.088C468.844 421.845 469.012 422.659 469.015 423.482Z" fill="white"/>
<path d="M470.529 398.923H452.876C452.108 398.923 451.485 399.545 451.485 400.314V413.806C451.485 414.574 452.108 415.197 452.876 415.197H470.529C471.298 415.197 471.92 414.574 471.92 413.806V400.314C471.92 399.545 471.298 398.923 470.529 398.923Z" fill="#96B1FF"/>
<path opacity="0.5" d="M471.921 400.314V413.855C471.922 414.038 471.888 414.22 471.818 414.39C471.749 414.559 471.647 414.713 471.517 414.843C471.388 414.972 471.233 415.074 471.064 415.144C470.894 415.213 470.713 415.248 470.53 415.246H452.889C452.706 415.248 452.524 415.213 452.354 415.144C452.185 415.074 452.031 414.972 451.901 414.843C451.772 414.713 451.67 414.559 451.6 414.39C451.531 414.22 451.496 414.038 451.498 413.855V400.314C451.498 399.945 451.644 399.591 451.905 399.33C452.166 399.069 452.52 398.923 452.889 398.923H470.53C470.899 398.923 471.252 399.069 471.513 399.33C471.774 399.591 471.921 399.945 471.921 400.314Z" fill="white"/>
<path opacity="0.2" d="M471.92 400.314V413.855C471.922 414.038 471.887 414.22 471.818 414.39C471.749 414.559 471.646 414.713 471.517 414.843C471.387 414.972 471.233 415.074 471.064 415.144C470.894 415.213 470.713 415.248 470.529 415.246H460.989C460.62 415.246 460.266 415.1 460.005 414.839C459.744 414.578 459.598 414.224 459.598 413.855V400.314C459.601 399.946 459.748 399.594 460.009 399.334C460.269 399.073 460.621 398.926 460.989 398.923H470.529C470.898 398.923 471.252 399.069 471.513 399.33C471.774 399.591 471.92 399.945 471.92 400.314Z" fill="white"/>
<path d="M264.611 400.301H457.333C457.532 400.301 457.723 400.38 457.864 400.521C458.004 400.662 458.084 400.853 458.084 401.052V412.599C458.084 412.799 458.004 412.99 457.864 413.13C457.723 413.271 457.532 413.35 457.333 413.35H264.611V400.301Z" fill="#96B1FF"/>
<path opacity="0.7" d="M264.611 400.301H457.333C457.532 400.301 457.723 400.38 457.864 400.521C458.004 400.662 458.084 400.853 458.084 401.052V412.599C458.084 412.799 458.004 412.99 457.864 413.13C457.723 413.271 457.532 413.35 457.333 413.35H264.611V400.301Z" fill="white"/>
<path d="M255.858 428.677L261.177 433.995H264.611L266.125 425.452L255.858 428.677Z" fill="#96B1FF"/>
<path d="M270.372 422.436H266.334C261.669 422.436 257.877 427.163 257.877 433.01C257.877 438.858 261.669 443.585 266.334 443.585H270.372C275.038 443.585 278.829 438.846 278.829 433.01C278.829 427.175 275.038 422.436 270.372 422.436Z" fill="#263238"/>
<path opacity="0.3" d="M270.372 443.585C275.05 443.585 278.842 438.851 278.842 433.01C278.842 427.17 275.05 422.436 270.372 422.436C265.695 422.436 261.903 427.17 261.903 433.01C261.903 438.851 265.695 443.585 270.372 443.585Z" fill="white"/>
<path opacity="0.3" d="M270.372 440.569C273.378 440.569 275.814 437.185 275.814 433.01C275.814 428.836 273.378 425.452 270.372 425.452C267.367 425.452 264.931 428.836 264.931 433.01C264.931 437.185 267.367 440.569 270.372 440.569Z" fill="white"/>
<path d="M271.924 432.013V423.482C271.925 422.667 271.765 421.86 271.452 421.108C271.139 420.356 270.68 419.673 270.102 419.1L265.177 414.175H255.809V428.702H263.836L268.55 433.417C268.744 433.608 268.975 433.757 269.23 433.855C269.484 433.952 269.756 433.996 270.028 433.983C270.538 433.967 271.022 433.752 271.377 433.384C271.731 433.016 271.927 432.524 271.924 432.013Z" fill="#96B1FF"/>
<path opacity="0.7" d="M271.924 423.482V432.013C271.924 432.511 271.732 432.99 271.388 433.35C271.044 433.71 270.574 433.924 270.077 433.946C269.804 433.964 269.531 433.922 269.276 433.824C269.021 433.727 268.791 433.575 268.6 433.38L263.885 428.677H255.809V414.151H265.104L270.028 419.075C270.623 419.645 271.097 420.329 271.423 421.086C271.748 421.843 271.919 422.658 271.924 423.482Z" fill="white"/>
<path opacity="0.2" d="M271.924 423.482V432.013C271.925 432.511 271.733 432.99 271.389 433.35C271.045 433.71 270.575 433.924 270.077 433.946C269.805 433.964 269.532 433.922 269.277 433.824C269.022 433.727 268.791 433.575 268.6 433.38L263.885 428.677V414.151H265.116L270.041 419.075C270.633 419.646 271.105 420.331 271.429 421.088C271.752 421.845 271.921 422.659 271.924 423.482Z" fill="white"/>
<path d="M273.438 398.923H255.785C255.016 398.923 254.394 399.545 254.394 400.314V413.806C254.394 414.574 255.016 415.197 255.785 415.197H273.438C274.206 415.197 274.829 414.574 274.829 413.806V400.314C274.829 399.545 274.206 398.923 273.438 398.923Z" fill="#96B1FF"/>
<path opacity="0.5" d="M274.829 400.314V413.855C274.831 414.038 274.796 414.22 274.726 414.39C274.657 414.559 274.555 414.713 274.425 414.843C274.296 414.972 274.142 415.074 273.972 415.144C273.803 415.213 273.621 415.248 273.438 415.246H255.809C255.626 415.248 255.444 415.213 255.275 415.144C255.105 415.074 254.951 414.972 254.822 414.843C254.692 414.713 254.59 414.559 254.521 414.39C254.451 414.22 254.416 414.038 254.418 413.855V400.314C254.418 399.945 254.565 399.591 254.825 399.33C255.086 399.069 255.44 398.923 255.809 398.923H273.45C273.817 398.926 274.168 399.074 274.426 399.334C274.684 399.595 274.829 399.947 274.829 400.314Z" fill="white"/>
<path opacity="0.2" d="M274.829 400.314V413.855C274.83 414.038 274.795 414.22 274.726 414.39C274.657 414.559 274.554 414.713 274.425 414.843C274.295 414.972 274.141 415.074 273.972 415.144C273.802 415.213 273.621 415.248 273.438 415.246H263.897C263.528 415.246 263.174 415.1 262.913 414.839C262.652 414.578 262.506 414.224 262.506 413.855V400.314C262.509 399.946 262.657 399.594 262.917 399.334C263.177 399.073 263.529 398.926 263.897 398.923H273.438C273.807 398.923 274.16 399.069 274.421 399.33C274.682 399.591 274.829 399.945 274.829 400.314Z" fill="white"/>
<path d="M497.095 402.554C497.095 402.554 498.77 390.244 506.648 388.89C514.527 387.535 512.151 381.589 514.195 379.287C516.238 376.985 521.581 383.781 517.014 390.367C512.447 396.953 516.177 394.885 514.195 401.003C512.213 407.121 496.394 412.809 497.095 402.554Z" fill="#263238"/>
<path opacity="0.2" d="M497.095 402.554C497.095 402.554 498.77 390.244 506.648 388.89C514.527 387.535 512.151 381.589 514.195 379.287C516.238 376.985 521.581 383.781 517.014 390.367C512.447 396.953 516.177 394.885 514.195 401.003C512.213 407.121 496.394 412.809 497.095 402.554Z" fill="white"/>
<path d="M499.742 410.913C499.69 410.926 499.635 410.926 499.582 410.913C499.527 410.894 499.477 410.864 499.434 410.825C499.391 410.785 499.356 410.738 499.332 410.685C499.308 410.632 499.295 410.575 499.293 410.517C499.292 410.459 499.302 410.401 499.324 410.347C499.324 410.211 504.248 397.236 499.521 377.465C498.051 371.79 495.988 366.286 493.366 361.043C488.823 351.195 484.908 342.676 490.706 326.807C492.504 321.883 494.4 317.304 496.185 312.86C502.869 296.45 508.138 283.487 502.562 271.459C502.515 271.351 502.512 271.229 502.553 271.119C502.595 271.009 502.677 270.919 502.783 270.868C502.836 270.844 502.894 270.83 502.953 270.828C503.011 270.826 503.07 270.835 503.125 270.856C503.18 270.876 503.23 270.908 503.273 270.948C503.316 270.988 503.35 271.036 503.374 271.09C509.111 283.462 503.768 296.585 497.009 313.192C495.2 317.636 493.316 322.216 491.544 327.115C485.868 342.639 489.537 350.591 494.166 360.661C496.78 365.968 498.843 371.528 500.321 377.256C505.085 397.31 500.124 410.494 500.075 410.667C500.044 410.732 499.997 410.788 499.939 410.831C499.881 410.874 499.814 410.902 499.742 410.913Z" fill="#263238"/>
<path d="M502.02 408.131C502.02 408.131 507.104 400.461 499.767 396.522C492.43 392.583 490.941 395.747 486.398 392.915C481.855 390.084 478.408 383.202 477.633 387.609C476.857 392.016 482.114 394.503 480.255 396.522C478.396 398.541 492.578 411.59 502.02 408.131Z" fill="#263238"/>
<path d="M505.713 277.442C505.713 277.442 509.406 262.03 498.191 262.67C486.976 263.31 500.407 276.261 505.713 277.442Z" fill="#263238"/>
<path d="M496.838 289.777C496.838 289.777 492.394 276.384 484.65 279.929C476.907 283.474 488.91 290.676 496.838 289.777Z" fill="#263238"/>
<path d="M510.477 289.876C510.477 289.876 508.397 279.08 516.842 278.181C525.287 277.282 522.295 287.155 510.477 289.876Z" fill="#263238"/>
<path d="M506.624 312.564C506.624 312.564 517.174 301.485 521.864 308.736C526.555 315.987 514.023 318.535 506.624 312.564Z" fill="#263238"/>
<path d="M486.373 312.38C486.373 312.38 482.889 295.723 474.136 301.743C465.384 307.763 478.507 314.706 486.373 312.38Z" fill="#263238"/>
<path d="M480.23 337.124C480.23 337.124 485.635 319.581 473.201 322.499C460.767 325.416 471.01 333.701 480.23 337.124Z" fill="#263238"/>
<path d="M500.038 341.629C500.038 341.629 509.664 328.26 518.109 331.572C526.554 334.883 520.916 347.883 500.038 341.629Z" fill="#263238"/>
<path d="M492.602 370.165C492.602 370.165 481.941 350.776 474.42 358.199C466.898 365.623 480.92 374.708 492.602 370.165Z" fill="#263238"/>
<path d="M505.712 367.937C505.712 367.937 502.019 352.524 511.141 353.054C520.264 353.583 518.577 363.321 505.712 367.937Z" fill="#263238"/>
<g opacity="0.2">
<path d="M505.713 277.442C505.713 277.442 509.406 262.03 498.191 262.67C486.976 263.31 500.407 276.261 505.713 277.442Z" fill="white"/>
<path d="M496.838 289.777C496.838 289.777 492.394 276.384 484.65 279.929C476.907 283.474 488.91 290.676 496.838 289.777Z" fill="white"/>
<path d="M510.477 289.876C510.477 289.876 508.397 279.079 516.842 278.181C525.287 277.282 522.295 287.155 510.477 289.876Z" fill="white"/>
<path d="M506.624 312.564C506.624 312.564 517.174 301.485 521.864 308.736C526.555 315.987 514.023 318.535 506.624 312.564Z" fill="white"/>
<path d="M486.373 312.38C486.373 312.38 482.889 295.723 474.136 301.743C465.384 307.763 478.507 314.706 486.373 312.38Z" fill="white"/>
<path d="M480.23 337.124C480.23 337.124 485.635 319.581 473.201 322.499C460.767 325.416 471.01 333.701 480.23 337.124Z" fill="white"/>
<path d="M500.038 341.629C500.038 341.629 509.664 328.26 518.109 331.572C526.554 334.883 520.916 347.883 500.038 341.629Z" fill="white"/>
<path d="M492.602 370.165C492.602 370.165 481.941 350.776 474.42 358.199C466.898 365.623 480.92 374.708 492.602 370.165Z" fill="white"/>
<path d="M505.712 367.937C505.712 367.937 502.019 352.524 511.141 353.054C520.264 353.583 518.577 363.321 505.712 367.937Z" fill="white"/>
</g>
<path d="M502.426 298.333H502.328C502.212 298.306 502.11 298.236 502.044 298.136C502.044 298.05 497.022 290.134 493.599 288.436C493.492 288.383 493.41 288.29 493.371 288.177C493.332 288.064 493.339 287.94 493.39 287.832C493.416 287.779 493.453 287.732 493.497 287.693C493.542 287.655 493.594 287.625 493.65 287.607C493.706 287.588 493.766 287.581 493.825 287.586C493.884 287.591 493.941 287.608 493.993 287.635C497.219 289.236 501.478 295.6 502.549 297.275C508.507 293.101 512.57 285.949 512.619 285.875C512.676 285.772 512.772 285.696 512.885 285.664C512.998 285.632 513.12 285.646 513.222 285.703C513.325 285.76 513.401 285.855 513.433 285.969C513.466 286.082 513.452 286.203 513.395 286.306C513.21 286.626 509.012 294.025 502.672 298.272C502.598 298.316 502.512 298.337 502.426 298.333Z" fill="#263238"/>
<path d="M493.796 320.074C493.733 320.067 493.672 320.047 493.617 320.015C493.562 319.983 493.514 319.94 493.476 319.889C493.476 319.803 487.321 311.21 480.082 307.689C480.03 307.663 479.983 307.627 479.944 307.583C479.906 307.539 479.876 307.488 479.857 307.433C479.838 307.377 479.831 307.319 479.834 307.26C479.838 307.202 479.853 307.145 479.879 307.092C479.905 307.04 479.941 306.993 479.985 306.954C480.029 306.915 480.08 306.886 480.136 306.867C480.191 306.848 480.25 306.84 480.308 306.844C480.367 306.848 480.424 306.863 480.476 306.889C487.087 310.114 492.602 317.193 493.92 318.966C503.029 311.124 515.167 310.459 515.291 310.459C515.407 310.456 515.521 310.497 515.608 310.575C515.695 310.653 515.749 310.761 515.758 310.878C515.762 310.936 515.754 310.994 515.734 311.049C515.715 311.104 515.685 311.155 515.646 311.198C515.607 311.242 515.56 311.277 515.508 311.302C515.455 311.328 515.398 311.342 515.34 311.345C515.217 311.345 503.029 312.023 494.141 319.963C494.095 320.005 494.04 320.036 493.981 320.055C493.921 320.074 493.858 320.08 493.796 320.074Z" fill="#263238"/>
<path d="M489.438 348.142C489.351 348.142 489.265 348.116 489.192 348.068C482.003 343.144 475.737 330.107 475.478 329.602C475.428 329.496 475.421 329.374 475.46 329.263C475.5 329.152 475.581 329.062 475.687 329.011C475.794 328.961 475.916 328.954 476.026 328.993C476.137 329.033 476.228 329.114 476.278 329.22C476.34 329.356 482.557 342.331 489.438 347.206C491.396 345.889 503.374 338.022 512.964 337.062C513.022 337.057 513.081 337.064 513.136 337.081C513.192 337.099 513.244 337.128 513.288 337.165C513.333 337.203 513.37 337.249 513.396 337.301C513.423 337.353 513.439 337.41 513.444 337.468C513.451 337.526 513.446 337.584 513.43 337.64C513.413 337.696 513.386 337.748 513.349 337.792C513.312 337.837 513.267 337.874 513.215 337.901C513.164 337.928 513.108 337.944 513.05 337.949C503.041 338.946 489.832 348.031 489.66 348.117C489.589 348.143 489.513 348.151 489.438 348.142Z" fill="#263238"/>
<path d="M499.742 376.025C499.676 376.027 499.611 376.014 499.551 375.986C499.491 375.959 499.439 375.917 499.398 375.865C495.132 371.48 489.631 368.499 483.628 367.321C483.566 367.315 483.506 367.296 483.453 367.264C483.399 367.233 483.352 367.191 483.315 367.141C483.279 367.091 483.253 367.033 483.241 366.972C483.228 366.912 483.228 366.849 483.241 366.788C483.254 366.727 483.279 366.67 483.316 366.619C483.353 366.569 483.4 366.527 483.454 366.496C483.508 366.465 483.567 366.446 483.629 366.44C483.691 366.434 483.754 366.44 483.813 366.46C489.878 367.645 495.451 370.616 499.816 374.991C504.494 371.372 510.022 358.162 510.071 358.027C510.117 357.92 510.204 357.835 510.312 357.791C510.421 357.747 510.542 357.748 510.65 357.793C510.705 357.813 510.756 357.845 510.798 357.885C510.841 357.926 510.875 357.975 510.898 358.029C510.921 358.083 510.933 358.142 510.932 358.201C510.932 358.26 510.92 358.318 510.896 358.372C510.662 358.95 504.962 372.553 500.001 375.951C499.925 376.002 499.834 376.028 499.742 376.025Z" fill="#263238"/>
<path d="M501.208 406.247C501.208 406.247 505.578 399.304 510.502 398.319C515.426 397.335 517.556 391.647 519.378 395.069C521.2 398.492 516.177 409.854 501.208 406.247Z" fill="#263238"/>
<path d="M521.654 405.201L520.177 417.942L519.98 419.617L519.377 424.959L518.921 428.739L518.638 431.189L517.21 443.585H480.328L478.888 431.189L478.605 428.739L478.161 424.959L477.546 419.617L477.349 417.942L475.872 405.201H521.654Z" fill="#96B1FF"/>
<path opacity="0.4" d="M519.377 424.959L518.922 428.739H478.605L478.162 424.959H519.377Z" fill="white"/>
<path opacity="0.4" d="M518.639 431.188L517.211 443.585H480.329L478.888 431.188H518.639Z" fill="white"/>
<path opacity="0.4" d="M520.178 417.942L519.981 419.617H477.547L477.35 417.942H520.178Z" fill="white"/>
</svg>
