<svg width="627" height="489" viewBox="0 0 627 489" fill="none" xmlns="http://www.w3.org/2000/svg">
<path d="M292.15 73.253C193.604 117.578 283.054 196.632 226.168 239.631C169.283 282.629 14.6262 232.924 73.5462 344.66C142.809 475.914 446.15 457.696 511.554 296.7C576.958 135.704 390.682 28.876 292.15 73.253Z" fill="#96B1FF"/>
<path opacity="0.9" d="M292.15 73.253C193.604 117.578 283.054 196.632 226.168 239.631C169.283 282.629 14.6262 232.924 73.5462 344.66C142.809 475.914 446.15 457.696 511.554 296.7C576.958 135.704 390.682 28.876 292.15 73.253Z" fill="white"/>
<path d="M298.135 489C438.685 489 552.624 482.348 552.624 474.142C552.624 465.936 438.685 459.284 298.135 459.284C157.585 459.284 43.6465 465.936 43.6465 474.142C43.6465 482.348 157.585 489 298.135 489Z" fill="#F5F5F5"/>
<path d="M454.564 102.929H219.737C214.431 102.929 210.129 107.231 210.129 112.537V400.863C210.129 406.169 214.431 410.471 219.737 410.471H454.564C459.87 410.471 464.172 406.169 464.172 400.863V112.537C464.172 107.231 459.87 102.929 454.564 102.929Z" fill="#96B1FF"/>
<path opacity="0.6" d="M454.564 102.929H219.737C214.431 102.929 210.129 107.231 210.129 112.537V400.863C210.129 406.169 214.431 410.471 219.737 410.471H454.564C459.87 410.471 464.172 406.169 464.172 400.863V112.537C464.172 107.231 459.87 102.929 454.564 102.929Z" fill="white"/>
<path d="M423.01 292.395H251.277V321.796H423.01V292.395Z" fill="white"/>
<g opacity="0.4">
<path d="M259.941 306.517C259.933 305.942 260.043 305.37 260.263 304.838C260.484 304.306 260.81 303.825 261.223 303.423C261.636 303.022 262.126 302.708 262.663 302.502C263.201 302.296 263.775 302.202 264.351 302.225C264.922 302.205 265.492 302.304 266.023 302.517C266.554 302.729 267.035 303.05 267.435 303.459L266.871 304.024C266.546 303.695 266.157 303.437 265.728 303.265C265.299 303.093 264.839 303.012 264.377 303.026C263.451 303.026 262.563 303.394 261.908 304.049C261.253 304.704 260.886 305.592 260.886 306.517C260.886 307.443 261.253 308.332 261.908 308.986C262.563 309.641 263.451 310.009 264.377 310.009C264.84 310.024 265.301 309.941 265.731 309.767C266.16 309.593 266.549 309.331 266.871 308.998L267.435 309.563C267.034 309.973 266.551 310.295 266.017 310.508C265.484 310.72 264.911 310.819 264.338 310.796C263.763 310.822 263.19 310.729 262.653 310.524C262.116 310.32 261.627 310.007 261.215 309.607C260.803 309.206 260.477 308.725 260.258 308.194C260.039 307.663 259.931 307.092 259.941 306.517Z" fill="#263238"/>
<path d="M268.235 307.568C268.233 306.928 268.42 306.303 268.773 305.77C269.126 305.238 269.63 304.822 270.219 304.575C270.809 304.329 271.459 304.263 272.086 304.386C272.713 304.509 273.29 304.816 273.743 305.267C274.195 305.718 274.504 306.293 274.63 306.92C274.756 307.546 274.692 308.196 274.448 308.787C274.204 309.378 273.791 309.883 273.259 310.238C272.728 310.594 272.103 310.783 271.464 310.783C271.037 310.798 270.612 310.725 270.215 310.569C269.817 310.412 269.456 310.176 269.153 309.875C268.851 309.573 268.613 309.213 268.455 308.816C268.297 308.42 268.222 307.995 268.235 307.568ZM273.814 307.568C273.793 307.105 273.637 306.658 273.364 306.284C273.092 305.909 272.715 305.622 272.282 305.46C271.848 305.298 271.376 305.266 270.924 305.37C270.473 305.474 270.062 305.708 269.742 306.044C269.423 306.379 269.209 306.801 269.128 307.257C269.046 307.713 269.101 308.183 269.284 308.608C269.467 309.034 269.772 309.396 270.16 309.65C270.547 309.903 271.001 310.037 271.464 310.035C271.785 310.041 272.103 309.981 272.398 309.858C272.694 309.734 272.961 309.551 273.182 309.318C273.403 309.086 273.573 308.811 273.682 308.509C273.791 308.208 273.835 307.887 273.814 307.568Z" fill="#263238"/>
<path d="M282.253 307.056V310.731H281.4V307.135C281.439 306.87 281.417 306.601 281.337 306.346C281.257 306.092 281.12 305.858 280.937 305.664C280.754 305.47 280.529 305.319 280.28 305.224C280.031 305.128 279.763 305.091 279.497 305.113C279.194 305.092 278.889 305.138 278.605 305.248C278.321 305.357 278.065 305.527 277.854 305.746C277.642 305.964 277.481 306.227 277.382 306.514C277.283 306.802 277.248 307.108 277.279 307.41V310.731H276.426V304.391H277.24V305.559C277.495 305.158 277.855 304.834 278.28 304.621C278.705 304.409 279.18 304.316 279.655 304.352C280.012 304.324 280.371 304.376 280.706 304.504C281.041 304.631 281.344 304.832 281.592 305.09C281.841 305.349 282.029 305.659 282.143 305.999C282.258 306.339 282.295 306.7 282.253 307.056Z" fill="#263238"/>
<path d="M286.637 301.74C287.107 301.716 287.571 301.855 287.95 302.134L287.661 302.777C287.394 302.561 287.059 302.449 286.716 302.462C285.994 302.462 285.6 302.869 285.6 303.656V304.391H287.556V305.113H285.626V310.731H284.773V305.113H283.645V304.391H284.773V303.617C284.754 303.367 284.789 303.115 284.875 302.879C284.962 302.644 285.098 302.43 285.275 302.251C285.452 302.073 285.665 301.935 285.9 301.847C286.135 301.759 286.387 301.722 286.637 301.74ZM290.68 302.383C290.682 302.466 290.666 302.549 290.635 302.626C290.604 302.704 290.558 302.774 290.499 302.833C290.44 302.892 290.37 302.938 290.293 302.969C290.216 303 290.133 303.015 290.05 303.013C289.962 303.026 289.873 303.02 289.788 302.995C289.703 302.97 289.624 302.928 289.557 302.87C289.49 302.812 289.436 302.74 289.399 302.66C289.362 302.579 289.343 302.491 289.343 302.403C289.343 302.314 289.362 302.227 289.399 302.146C289.436 302.066 289.49 301.994 289.557 301.936C289.624 301.878 289.703 301.835 289.788 301.811C289.873 301.786 289.962 301.78 290.05 301.793C290.13 301.789 290.21 301.802 290.286 301.83C290.361 301.858 290.43 301.9 290.489 301.955C290.548 302.01 290.595 302.077 290.628 302.15C290.66 302.224 290.678 302.303 290.68 302.383ZM289.617 304.391H290.47V310.731H289.617V304.391Z" fill="#263238"/>
<path d="M296.048 304.352V305.179H295.838C295.536 305.164 295.235 305.216 294.956 305.332C294.677 305.447 294.427 305.622 294.224 305.846C294.021 306.069 293.87 306.334 293.781 306.623C293.692 306.912 293.669 307.216 293.712 307.515V310.744H292.885V304.404H293.699V305.651C293.915 305.224 294.255 304.872 294.673 304.64C295.092 304.409 295.571 304.308 296.048 304.352Z" fill="#263238"/>
<path d="M308.031 307.056V310.731H307.178V307.134C307.178 305.822 306.509 305.113 305.367 305.113C305.069 305.099 304.772 305.151 304.496 305.264C304.22 305.377 303.973 305.549 303.77 305.768C303.568 305.986 303.415 306.247 303.324 306.53C303.232 306.814 303.204 307.114 303.241 307.41V310.731H302.387V307.134C302.387 305.822 301.718 305.113 300.563 305.113C300.266 305.102 299.97 305.155 299.695 305.268C299.42 305.382 299.173 305.554 298.971 305.772C298.769 305.991 298.617 306.25 298.525 306.533C298.432 306.815 298.402 307.115 298.437 307.41V310.731H297.583V304.391H298.41V305.546C298.66 305.162 299.005 304.849 299.413 304.64C299.82 304.43 300.276 304.331 300.734 304.352C301.197 304.314 301.661 304.42 302.062 304.655C302.464 304.89 302.783 305.242 302.978 305.664C303.238 305.239 303.609 304.893 304.05 304.662C304.492 304.431 304.988 304.324 305.485 304.352C305.84 304.325 306.196 304.378 306.528 304.507C306.86 304.636 307.159 304.837 307.403 305.096C307.647 305.355 307.83 305.666 307.939 306.005C308.048 306.344 308.079 306.703 308.031 307.056Z" fill="#263238"/>
<path d="M320.737 302.304V310.731H320.002L314.581 303.892V310.731H313.688V302.304H314.423L319.857 309.143V302.304H320.737Z" fill="#263238"/>
<path d="M328.809 307.83H323.559C323.576 308.139 323.654 308.442 323.789 308.721C323.923 309 324.112 309.249 324.344 309.455C324.577 309.66 324.847 309.817 325.14 309.917C325.434 310.016 325.744 310.057 326.053 310.035C326.417 310.047 326.779 309.978 327.112 309.832C327.446 309.687 327.743 309.469 327.982 309.195L328.468 309.76C328.013 310.235 327.428 310.565 326.787 310.71C326.145 310.854 325.475 310.807 324.861 310.573C324.246 310.339 323.714 309.929 323.331 309.395C322.947 308.86 322.73 308.225 322.706 307.568C322.683 307.15 322.745 306.733 322.89 306.34C323.035 305.948 323.259 305.59 323.549 305.289C323.838 304.987 324.186 304.748 324.572 304.587C324.958 304.426 325.372 304.346 325.79 304.352C326.208 304.344 326.624 304.422 327.009 304.583C327.395 304.744 327.744 304.983 328.032 305.285C328.321 305.587 328.544 305.946 328.687 306.339C328.83 306.732 328.889 307.15 328.862 307.568C328.822 307.633 328.809 307.725 328.809 307.83ZM323.559 307.187H328.048C328.048 306.592 327.812 306.021 327.391 305.6C326.97 305.179 326.399 304.943 325.804 304.943C325.208 304.943 324.637 305.179 324.217 305.6C323.796 306.021 323.559 306.592 323.559 307.187Z" fill="#263238"/>
<path d="M339.743 304.391L337.341 310.731H336.54L334.545 305.546L332.55 310.731H331.737L329.361 304.391H330.175L332.157 309.773L334.191 304.391H334.887L336.908 309.773L338.916 304.391H339.743Z" fill="#263238"/>
<path d="M350.965 305.192C350.965 306.99 349.652 308.066 347.513 308.066H345.255V310.691H344.363V302.265H347.513C349.665 302.304 350.965 303.381 350.965 305.192ZM350.072 305.192C350.072 303.879 349.18 303.079 347.447 303.079H345.255V307.292H347.5C349.18 307.292 350.072 306.517 350.072 305.192Z" fill="#263238"/>
<path d="M357.423 306.806V310.744H356.609V309.76C356.371 310.11 356.044 310.391 355.661 310.573C355.278 310.756 354.853 310.833 354.431 310.797C353 310.797 352.121 310.048 352.121 308.959C352.121 307.87 352.737 307.135 354.575 307.135H356.583V306.754C356.583 305.678 355.966 305.087 354.785 305.087C354.02 305.078 353.277 305.338 352.685 305.822L352.304 305.192C353.051 304.606 353.981 304.304 354.929 304.339C355.264 304.299 355.603 304.336 355.922 304.446C356.241 304.555 356.531 304.735 356.77 304.973C357.01 305.21 357.193 305.497 357.306 305.815C357.419 306.132 357.459 306.471 357.423 306.806ZM356.57 308.828V307.791H354.575C353.341 307.791 352.948 308.276 352.948 308.92C352.948 309.563 353.538 310.114 354.549 310.114C354.978 310.141 355.406 310.031 355.769 309.8C356.132 309.569 356.413 309.228 356.57 308.828Z" fill="#263238"/>
<path d="M358.866 310.009L359.26 309.326C359.912 309.8 360.699 310.049 361.504 310.035C362.712 310.035 363.198 309.628 363.198 309.011C363.198 307.358 359.102 308.657 359.102 306.15C359.102 305.113 359.995 304.352 361.596 304.352C362.385 304.335 363.163 304.539 363.841 304.943L363.473 305.625C362.916 305.262 362.262 305.074 361.596 305.087C360.454 305.087 359.956 305.533 359.956 306.124C359.956 307.843 364.064 306.557 364.064 308.985C364.064 310.075 363.093 310.783 361.439 310.783C360.52 310.809 359.618 310.537 358.866 310.009Z" fill="#263238"/>
<path d="M364.76 310.009L365.14 309.326C365.798 309.797 366.589 310.046 367.398 310.035C368.592 310.035 369.091 309.628 369.091 309.011C369.091 307.357 364.983 308.657 364.983 306.15C364.983 305.113 365.875 304.352 367.49 304.352C368.274 304.336 369.047 304.541 369.721 304.942L369.354 305.625C368.801 305.262 368.151 305.074 367.49 305.087C366.348 305.087 365.836 305.533 365.836 306.124C365.836 307.843 369.944 306.557 369.944 308.985C369.944 310.074 368.986 310.783 367.319 310.783C366.404 310.811 365.506 310.539 364.76 310.009Z" fill="#263238"/>
<path d="M380.694 304.391L378.292 310.731H377.491L375.496 305.546L373.501 310.731H372.687L370.325 304.391H371.138L373.12 309.773L375.155 304.391H375.89L377.911 309.773L379.919 304.391H380.694Z" fill="#263238"/>
<path d="M381.166 307.567C381.166 306.932 381.355 306.311 381.707 305.782C382.06 305.254 382.562 304.842 383.149 304.598C383.735 304.354 384.381 304.29 385.005 304.413C385.628 304.536 386.201 304.841 386.651 305.289C387.102 305.737 387.409 306.309 387.534 306.932C387.66 307.555 387.598 308.201 387.357 308.789C387.115 309.377 386.705 309.88 386.178 310.235C385.651 310.59 385.031 310.781 384.395 310.783C383.968 310.8 383.542 310.728 383.143 310.572C382.745 310.417 382.383 310.181 382.08 309.879C381.777 309.577 381.54 309.216 381.382 308.818C381.225 308.421 381.152 307.995 381.166 307.567ZM386.732 307.567C386.708 307.108 386.551 306.665 386.278 306.295C386.006 305.924 385.631 305.641 385.199 305.482C384.768 305.322 384.299 305.293 383.851 305.398C383.403 305.502 382.995 305.736 382.679 306.07C382.363 306.404 382.151 306.824 382.071 307.277C381.991 307.73 382.046 308.197 382.229 308.619C382.412 309.041 382.714 309.4 383.1 309.652C383.485 309.904 383.935 310.037 384.395 310.035C384.715 310.039 385.031 309.978 385.325 309.853C385.62 309.729 385.885 309.545 386.104 309.313C386.324 309.082 386.493 308.807 386.601 308.506C386.709 308.206 386.753 307.886 386.732 307.567Z" fill="#263238"/>
<path d="M392.533 304.352V305.179H392.336C392.035 305.164 391.734 305.216 391.455 305.332C391.176 305.447 390.926 305.622 390.723 305.846C390.519 306.069 390.368 306.334 390.279 306.623C390.191 306.912 390.167 307.216 390.21 307.515V310.744H389.344V304.404H390.171V305.651C390.388 305.222 390.73 304.868 391.151 304.636C391.573 304.405 392.054 304.305 392.533 304.352Z" fill="#263238"/>
<path d="M399.792 301.792V310.731H398.978V309.418C398.725 309.835 398.365 310.177 397.936 310.407C397.507 310.638 397.024 310.75 396.537 310.731C395.684 310.731 394.866 310.392 394.263 309.789C393.66 309.186 393.321 308.368 393.321 307.515C393.321 306.662 393.66 305.844 394.263 305.241C394.866 304.638 395.684 304.299 396.537 304.299C397.01 304.283 397.48 304.389 397.901 304.608C398.322 304.826 398.679 305.149 398.938 305.546V301.74L399.792 301.792ZM398.952 307.568C398.929 307.109 398.771 306.667 398.5 306.296C398.228 305.926 397.853 305.643 397.422 305.483C396.992 305.323 396.523 305.293 396.076 305.397C395.628 305.5 395.22 305.733 394.904 306.066C394.587 306.399 394.374 306.817 394.293 307.269C394.211 307.721 394.264 308.188 394.445 308.61C394.626 309.033 394.927 309.393 395.31 309.646C395.693 309.899 396.143 310.035 396.602 310.035C396.923 310.041 397.241 309.981 397.536 309.858C397.832 309.734 398.099 309.551 398.32 309.319C398.541 309.086 398.711 308.811 398.82 308.509C398.929 308.208 398.974 307.887 398.952 307.568Z" fill="#263238"/>
</g>
<path opacity="0.2" d="M423.01 349.937H251.277V379.337H423.01V349.937Z" fill="black"/>
<g opacity="0.5">
<path d="M252.34 222.869V224.838H254.965V225.298H252.34V227.437H251.802V222.41H255.254V222.869H252.34Z" fill="black"/>
<path d="M255.74 225.547C255.74 225.166 255.853 224.792 256.065 224.475C256.277 224.158 256.578 223.911 256.931 223.765C257.284 223.619 257.672 223.58 258.046 223.655C258.42 223.729 258.764 223.913 259.034 224.183C259.304 224.453 259.487 224.796 259.562 225.171C259.636 225.545 259.598 225.933 259.452 226.285C259.306 226.638 259.059 226.939 258.741 227.151C258.424 227.363 258.051 227.477 257.669 227.477C257.414 227.486 257.159 227.442 256.92 227.348C256.682 227.255 256.466 227.113 256.285 226.932C256.104 226.751 255.962 226.534 255.868 226.296C255.774 226.058 255.731 225.803 255.74 225.547ZM259.074 225.547C259.064 225.269 258.971 224.999 258.809 224.773C258.646 224.547 258.421 224.373 258.16 224.274C257.9 224.175 257.616 224.156 257.344 224.217C257.072 224.279 256.825 224.419 256.632 224.62C256.44 224.822 256.311 225.076 256.262 225.35C256.213 225.624 256.246 225.907 256.356 226.163C256.467 226.418 256.651 226.636 256.884 226.788C257.118 226.94 257.391 227.02 257.669 227.017C257.861 227.021 258.051 226.985 258.227 226.912C258.404 226.839 258.563 226.73 258.695 226.591C258.827 226.453 258.929 226.289 258.994 226.109C259.06 225.929 259.087 225.738 259.074 225.547Z" fill="black"/>
<path d="M262.539 223.631V224.129H262.421C262.238 224.114 262.053 224.14 261.882 224.205C261.71 224.271 261.555 224.374 261.429 224.508C261.303 224.642 261.208 224.802 261.153 224.978C261.097 225.153 261.082 225.339 261.109 225.521V227.45H260.597V223.657H261.082V224.444C261.21 224.173 261.418 223.949 261.68 223.803C261.941 223.657 262.242 223.597 262.539 223.631Z" fill="black"/>
<path d="M266.923 223.657V226.978C266.963 227.235 266.942 227.498 266.862 227.746C266.781 227.994 266.643 228.219 266.458 228.403C266.274 228.587 266.049 228.726 265.801 228.806C265.554 228.887 265.29 228.908 265.033 228.868C264.396 228.895 263.771 228.69 263.274 228.29L263.537 227.896C263.95 228.247 264.478 228.433 265.02 228.421C265.978 228.421 266.411 227.975 266.411 227.043V226.558C266.249 226.795 266.028 226.987 265.771 227.115C265.514 227.244 265.228 227.305 264.941 227.293C264.687 227.314 264.432 227.283 264.192 227.2C263.951 227.118 263.73 226.987 263.543 226.815C263.355 226.643 263.206 226.433 263.103 226.2C263.001 225.968 262.948 225.716 262.948 225.462C262.948 225.207 263.001 224.956 263.103 224.723C263.206 224.49 263.355 224.281 263.543 224.108C263.73 223.936 263.951 223.805 264.192 223.723C264.432 223.64 264.687 223.609 264.941 223.631C265.233 223.619 265.524 223.681 265.785 223.812C266.047 223.943 266.271 224.138 266.437 224.379V223.657H266.923ZM266.424 225.455C266.432 225.171 266.355 224.89 266.202 224.65C266.05 224.409 265.829 224.22 265.569 224.106C265.308 223.991 265.019 223.957 264.739 224.008C264.459 224.059 264.201 224.192 263.997 224.39C263.793 224.588 263.652 224.843 263.594 225.122C263.535 225.4 263.561 225.69 263.668 225.954C263.775 226.217 263.959 226.443 264.195 226.602C264.431 226.761 264.709 226.846 264.993 226.846C265.182 226.864 265.373 226.84 265.552 226.777C265.73 226.714 265.893 226.613 266.029 226.48C266.165 226.348 266.271 226.188 266.339 226.011C266.407 225.834 266.436 225.644 266.424 225.455Z" fill="black"/>
<path d="M267.947 225.547C267.947 225.166 268.06 224.792 268.272 224.475C268.484 224.158 268.785 223.911 269.138 223.765C269.49 223.619 269.878 223.58 270.252 223.655C270.627 223.729 270.97 223.913 271.24 224.183C271.51 224.453 271.694 224.796 271.768 225.171C271.843 225.545 271.805 225.933 271.659 226.285C271.512 226.638 271.265 226.939 270.948 227.151C270.631 227.363 270.258 227.477 269.876 227.477C269.62 227.486 269.365 227.442 269.127 227.348C268.889 227.255 268.672 227.113 268.491 226.932C268.31 226.751 268.168 226.534 268.075 226.296C267.981 226.058 267.937 225.803 267.947 225.547ZM271.28 225.547C271.268 225.273 271.174 225.008 271.012 224.786C270.851 224.563 270.627 224.394 270.369 224.297C270.112 224.201 269.832 224.182 269.564 224.244C269.296 224.305 269.052 224.444 268.862 224.643C268.672 224.841 268.545 225.092 268.496 225.362C268.447 225.632 268.478 225.911 268.586 226.164C268.694 226.417 268.874 226.633 269.103 226.784C269.332 226.936 269.601 227.017 269.876 227.017C270.069 227.025 270.262 226.992 270.442 226.92C270.622 226.849 270.784 226.74 270.919 226.601C271.054 226.463 271.158 226.297 271.225 226.115C271.292 225.934 271.32 225.74 271.307 225.547H271.28Z" fill="black"/>
<path d="M274.864 227.214C274.633 227.387 274.352 227.479 274.063 227.476C273.915 227.493 273.764 227.476 273.622 227.427C273.481 227.377 273.353 227.296 273.247 227.191C273.141 227.085 273.06 226.956 273.011 226.815C272.961 226.673 272.944 226.523 272.961 226.374V224.09H272.278V223.657H272.961V222.83H273.473V223.657H274.615V224.09H273.473V226.348C273.473 226.794 273.696 227.03 274.116 227.03C274.319 227.034 274.518 226.969 274.68 226.846L274.864 227.214Z" fill="black"/>
<path d="M281.728 224.129C281.728 225.206 280.941 225.849 279.668 225.849H278.355V227.437H277.817V222.41H279.707C280.941 222.41 281.728 223.053 281.728 224.129ZM281.19 224.129C281.19 223.329 280.665 222.817 279.654 222.817H278.342V225.324H279.654C280.665 225.376 281.19 224.917 281.19 224.129Z" fill="black"/>
<path d="M285.587 225.101V227.437H285.102V226.846C284.959 227.059 284.763 227.23 284.532 227.341C284.301 227.452 284.044 227.498 283.789 227.476C282.923 227.476 282.398 227.03 282.398 226.374C282.398 225.718 282.779 225.298 283.868 225.298H285.062V225.074C285.074 224.935 285.053 224.794 285.003 224.664C284.953 224.533 284.873 224.415 284.771 224.32C284.669 224.224 284.547 224.152 284.413 224.11C284.279 224.068 284.138 224.057 283.999 224.077C283.521 224.054 283.052 224.214 282.687 224.523L282.45 224.143C282.887 223.797 283.43 223.616 283.986 223.631C284.195 223.581 284.412 223.584 284.62 223.638C284.828 223.692 285.019 223.796 285.177 223.941C285.335 224.086 285.455 224.268 285.526 224.47C285.598 224.672 285.619 224.889 285.587 225.101ZM285.076 226.308V225.678H283.894C283.159 225.678 282.923 225.967 282.923 226.361C282.923 226.755 283.277 227.07 283.881 227.07C284.135 227.085 284.387 227.019 284.602 226.882C284.816 226.746 284.982 226.545 285.076 226.308Z" fill="black"/>
<path d="M286.453 227.07L286.689 226.676C287.072 226.949 287.531 227.096 288.002 227.096C288.724 227.096 289.013 226.846 289.013 226.479C289.013 225.495 286.558 226.269 286.558 224.773C286.558 224.156 287.096 223.696 288.054 223.696C288.516 223.689 288.971 223.812 289.367 224.051L289.144 224.458C288.816 224.234 288.425 224.119 288.028 224.129C287.346 224.129 287.044 224.392 287.044 224.76C287.044 225.783 289.498 225.009 289.498 226.466C289.498 227.122 288.921 227.542 287.936 227.542C287.404 227.547 286.884 227.381 286.453 227.07Z" fill="black"/>
<path d="M289.971 227.07L290.207 226.676C290.591 226.948 291.05 227.094 291.52 227.096C292.242 227.096 292.531 226.846 292.531 226.479C292.531 225.495 290.089 226.269 290.089 224.773C290.089 224.156 290.614 223.696 291.572 223.696C292.035 223.689 292.489 223.812 292.885 224.051L292.662 224.458C292.334 224.234 291.943 224.119 291.546 224.129C290.864 224.129 290.562 224.392 290.562 224.76C290.562 225.783 293.016 225.009 293.016 226.466C293.016 227.122 292.439 227.542 291.454 227.542C290.922 227.547 290.403 227.381 289.971 227.07Z" fill="black"/>
<path d="M299.448 223.657L298.135 227.437H297.649L296.455 224.34L295.261 227.437H294.775L293.357 223.657H293.843L295.024 226.873L296.245 223.657H296.678L297.886 226.873L299.093 223.657H299.448Z" fill="black"/>
<path d="M299.776 225.547C299.776 225.166 299.889 224.792 300.101 224.475C300.313 224.158 300.614 223.911 300.967 223.765C301.319 223.619 301.707 223.58 302.081 223.655C302.456 223.729 302.8 223.913 303.069 224.183C303.339 224.453 303.523 224.796 303.597 225.171C303.672 225.545 303.634 225.933 303.488 226.285C303.342 226.638 303.094 226.939 302.777 227.151C302.46 227.363 302.087 227.477 301.705 227.477C301.449 227.486 301.194 227.442 300.956 227.348C300.718 227.255 300.501 227.113 300.32 226.932C300.139 226.751 299.997 226.534 299.904 226.296C299.81 226.058 299.766 225.803 299.776 225.547ZM303.109 225.547C303.097 225.273 303.003 225.008 302.842 224.786C302.68 224.563 302.456 224.394 302.199 224.297C301.941 224.201 301.661 224.182 301.393 224.244C301.125 224.305 300.881 224.444 300.691 224.643C300.501 224.841 300.374 225.092 300.325 225.362C300.276 225.632 300.307 225.911 300.415 226.164C300.523 226.417 300.703 226.633 300.932 226.784C301.161 226.936 301.43 227.017 301.705 227.017C301.896 227.021 302.086 226.985 302.263 226.912C302.439 226.839 302.599 226.73 302.731 226.591C302.863 226.453 302.965 226.289 303.03 226.109C303.095 225.929 303.122 225.738 303.109 225.547Z" fill="black"/>
<path d="M306.575 223.631V224.129H306.457C306.273 224.114 306.089 224.14 305.917 224.205C305.745 224.271 305.59 224.374 305.464 224.508C305.338 224.642 305.244 224.802 305.188 224.978C305.133 225.153 305.118 225.339 305.144 225.521V227.45H304.698V223.657H305.183V224.445C305.307 224.185 305.505 223.968 305.754 223.823C306.002 223.678 306.288 223.611 306.575 223.631Z" fill="black"/>
<path d="M310.919 222.108V227.437H310.421V226.689C310.272 226.94 310.057 227.145 309.801 227.284C309.544 227.422 309.255 227.489 308.964 227.476C308.481 227.437 308.031 227.217 307.703 226.86C307.375 226.504 307.193 226.038 307.193 225.554C307.193 225.069 307.375 224.603 307.703 224.247C308.031 223.89 308.481 223.671 308.964 223.631C309.248 223.622 309.53 223.686 309.783 223.817C310.036 223.948 310.251 224.141 310.408 224.379V222.108H310.919ZM310.408 225.547C310.395 225.272 310.302 225.008 310.14 224.785C309.978 224.563 309.754 224.394 309.497 224.297C309.239 224.201 308.959 224.182 308.691 224.244C308.423 224.305 308.179 224.444 307.989 224.642C307.799 224.841 307.672 225.091 307.623 225.362C307.574 225.632 307.605 225.911 307.713 226.164C307.821 226.417 308.001 226.633 308.23 226.784C308.459 226.936 308.728 227.017 309.003 227.017C309.194 227.021 309.384 226.985 309.561 226.912C309.737 226.839 309.897 226.729 310.029 226.591C310.161 226.453 310.263 226.289 310.328 226.109C310.393 225.929 310.42 225.738 310.408 225.547Z" fill="black"/>
<path d="M314.634 223.696C314.634 223.171 314.214 222.817 313.479 222.817C313.22 222.799 312.961 222.842 312.722 222.942C312.482 223.043 312.27 223.197 312.101 223.394L311.72 223.106C311.943 222.852 312.221 222.653 312.533 222.524C312.844 222.394 313.181 222.337 313.518 222.357C314.516 222.357 315.172 222.843 315.172 223.67C315.172 224.891 313.86 224.982 313.86 225.98H313.335C313.321 224.746 314.634 224.628 314.634 223.696ZM313.216 227.069C313.233 226.982 313.279 226.903 313.348 226.847C313.416 226.79 313.502 226.759 313.591 226.759C313.679 226.759 313.765 226.79 313.834 226.847C313.902 226.903 313.948 226.982 313.965 227.069C313.975 227.124 313.973 227.181 313.959 227.235C313.945 227.289 313.919 227.34 313.884 227.383C313.848 227.426 313.803 227.461 313.752 227.484C313.702 227.508 313.647 227.52 313.591 227.52C313.535 227.52 313.479 227.508 313.429 227.484C313.378 227.461 313.333 227.426 313.298 227.383C313.262 227.34 313.236 227.289 313.222 227.235C313.208 227.181 313.206 227.124 313.216 227.069Z" fill="black"/>
</g>
<path d="M423.01 348.125H251.277V377.526H423.01V348.125Z" fill="#96B1FF"/>
<path d="M288.724 366.199L289.262 365.07C290.197 365.839 291.373 366.252 292.583 366.238C294.316 366.238 295.064 365.569 295.064 364.689C295.064 362.235 288.974 363.784 288.974 360.043C288.974 358.494 290.181 357.168 292.819 357.168C293.963 357.147 295.089 357.457 296.061 358.061L295.589 359.203C294.76 358.678 293.8 358.396 292.819 358.389C291.113 358.389 290.378 359.111 290.378 359.99C290.378 362.445 296.481 360.909 296.481 364.597C296.481 366.146 295.169 367.459 292.544 367.459C291.163 367.494 289.813 367.049 288.724 366.199Z" fill="white"/>
<path d="M305.236 364.046H299.054C299.151 364.698 299.49 365.289 300.003 365.702C300.516 366.116 301.166 366.321 301.823 366.278C302.233 366.29 302.641 366.215 303.019 366.057C303.397 365.898 303.737 365.66 304.015 365.359L304.776 366.251C304.216 366.823 303.503 367.22 302.722 367.396C301.941 367.571 301.126 367.516 300.376 367.239C299.625 366.961 298.971 366.473 298.492 365.832C298.013 365.191 297.729 364.425 297.676 363.626C297.648 363.112 297.728 362.598 297.908 362.115C298.089 361.633 298.368 361.194 298.726 360.824C299.085 360.454 299.516 360.163 299.992 359.967C300.469 359.772 300.98 359.677 301.495 359.689C302.008 359.674 302.519 359.768 302.994 359.963C303.469 360.158 303.897 360.451 304.252 360.822C304.607 361.193 304.88 361.634 305.054 362.117C305.228 362.6 305.299 363.114 305.262 363.626C305.262 363.744 305.249 363.915 305.236 364.046ZM299.054 363.062H303.95C303.874 362.466 303.583 361.918 303.133 361.521C302.682 361.124 302.102 360.905 301.502 360.905C300.901 360.905 300.321 361.124 299.871 361.521C299.42 361.918 299.13 362.466 299.054 363.062Z" fill="white"/>
<path d="M311.47 366.96C310.991 367.32 310.403 367.506 309.803 367.485C309.479 367.522 309.151 367.486 308.843 367.38C308.535 367.273 308.255 367.099 308.023 366.869C307.792 366.64 307.614 366.362 307.504 366.055C307.394 365.748 307.355 365.421 307.388 365.096V360.949H306.076V359.82H307.388V358.153H308.766V359.82H310.958V360.949H308.766V365.083C308.735 365.252 308.744 365.426 308.791 365.591C308.838 365.756 308.923 365.908 309.039 366.035C309.154 366.162 309.298 366.261 309.458 366.323C309.617 366.386 309.79 366.411 309.961 366.396C310.35 366.406 310.73 366.281 311.037 366.041L311.47 366.96Z" fill="white"/>
<path d="M325.344 360.844C325.344 363.036 323.756 364.348 321.144 364.348H318.65V367.406H317.22V357.339H321.157C323.756 357.339 325.344 358.652 325.344 360.844ZM323.901 360.844C323.901 359.4 322.942 358.586 321.105 358.586H318.65V363.101H321.105C322.942 363.101 323.901 362.261 323.901 360.844Z" fill="white"/>
<path d="M333.232 362.799V367.406H331.92V366.396C331.627 366.773 331.244 367.07 330.806 367.261C330.367 367.451 329.889 367.528 329.413 367.485C327.693 367.485 326.604 366.566 326.604 365.241C326.604 363.915 327.392 363.009 329.662 363.009H331.854V362.747C331.854 361.579 331.172 360.896 329.807 360.896C328.932 360.896 328.082 361.187 327.392 361.723L326.814 360.686C327.726 360.018 328.834 359.671 329.964 359.702C332.051 359.702 333.232 360.712 333.232 362.799ZM331.854 365.07V364.007H329.715C328.402 364.007 327.969 364.545 327.969 365.188C327.969 365.831 328.599 366.422 329.649 366.422C330.112 366.456 330.573 366.343 330.969 366.101C331.365 365.858 331.674 365.498 331.854 365.07Z" fill="white"/>
<path d="M334.886 366.592L335.464 365.503C336.246 366.011 337.157 366.284 338.089 366.291C339.401 366.291 339.9 365.91 339.9 365.254C339.9 363.547 335.083 365.031 335.083 361.999C335.083 360.686 336.304 359.702 338.259 359.702C339.232 359.685 340.192 359.925 341.042 360.397L340.451 361.487C339.792 361.072 339.025 360.862 338.246 360.883C337.039 360.883 336.448 361.329 336.448 361.933C336.448 363.731 341.291 362.261 341.291 365.227C341.291 366.606 339.979 367.485 337.997 367.485C336.893 367.511 335.808 367.2 334.886 366.592Z" fill="white"/>
<path d="M342.04 366.592L342.618 365.503C343.399 366.011 344.31 366.284 345.243 366.291C346.555 366.291 347.054 365.91 347.054 365.254C347.054 363.547 342.237 365.031 342.237 361.999C342.237 360.686 343.458 359.702 345.413 359.702C346.381 359.686 347.337 359.926 348.183 360.397L347.592 361.487C346.937 361.074 346.174 360.864 345.4 360.883C344.193 360.883 343.602 361.329 343.602 361.933C343.602 363.731 348.432 362.261 348.432 365.227C348.432 366.606 347.12 367.485 345.138 367.485C344.039 367.507 342.959 367.196 342.04 366.592Z" fill="white"/>
<path d="M361.597 359.781L358.749 367.406H357.436L355.231 361.618L353 367.406H351.687L348.865 359.781H350.178L352.396 365.844L354.693 359.781H355.887L358.145 365.871L360.416 359.781H361.597Z" fill="white"/>
<path d="M362.082 363.574C362.082 362.795 362.313 362.034 362.746 361.386C363.178 360.739 363.793 360.234 364.513 359.936C365.232 359.638 366.024 359.56 366.788 359.712C367.552 359.864 368.253 360.239 368.804 360.79C369.355 361.34 369.73 362.042 369.882 362.806C370.033 363.569 369.955 364.361 369.657 365.081C369.359 365.8 368.855 366.415 368.207 366.848C367.56 367.281 366.798 367.511 366.02 367.511C365.497 367.532 364.976 367.444 364.489 367.253C364.002 367.062 363.56 366.773 363.19 366.403C362.82 366.034 362.531 365.591 362.34 365.104C362.15 364.617 362.062 364.096 362.082 363.574ZM368.645 363.574C368.632 363.055 368.465 362.551 368.166 362.127C367.866 361.703 367.448 361.377 366.964 361.191C366.479 361.004 365.95 360.965 365.444 361.079C364.937 361.193 364.476 361.455 364.118 361.831C363.761 362.207 363.522 362.681 363.434 363.192C363.345 363.704 363.41 364.23 363.621 364.705C363.831 365.179 364.178 365.581 364.616 365.858C365.055 366.136 365.566 366.277 366.085 366.265C366.433 366.269 366.777 366.201 367.097 366.066C367.417 365.93 367.705 365.729 367.944 365.476C368.182 365.223 368.365 364.923 368.481 364.596C368.597 364.268 368.644 363.92 368.618 363.574H368.645Z" fill="white"/>
<path d="M376.021 359.702V361.014H375.706C375.364 360.99 375.022 361.043 374.704 361.17C374.387 361.297 374.101 361.494 373.87 361.746C373.64 361.999 373.469 362.3 373.37 362.628C373.272 362.956 373.25 363.301 373.304 363.639V367.446H371.991V359.82H373.304V361.132C373.579 360.664 373.978 360.283 374.459 360.03C374.939 359.777 375.48 359.663 376.021 359.702Z" fill="white"/>
<path d="M384.841 356.736V367.407H383.529V366.199C383.217 366.622 382.807 366.963 382.333 367.192C381.86 367.421 381.338 367.531 380.812 367.512C379.883 367.368 379.035 366.897 378.423 366.183C377.811 365.47 377.474 364.56 377.474 363.62C377.474 362.679 377.811 361.77 378.423 361.056C379.035 360.343 379.883 359.871 380.812 359.728C381.315 359.716 381.815 359.821 382.27 360.035C382.726 360.249 383.125 360.567 383.437 360.962V356.762L384.841 356.736ZM383.45 363.574C383.437 363.055 383.27 362.552 382.971 362.127C382.672 361.703 382.254 361.377 381.769 361.191C381.285 361.004 380.756 360.965 380.249 361.079C379.743 361.193 379.282 361.455 378.924 361.831C378.566 362.207 378.328 362.681 378.239 363.193C378.151 363.704 378.216 364.23 378.426 364.705C378.637 365.179 378.983 365.581 379.422 365.858C379.861 366.136 380.372 366.277 380.891 366.265C381.24 366.273 381.588 366.208 381.911 366.074C382.234 365.94 382.525 365.74 382.767 365.486C383.008 365.233 383.193 364.932 383.311 364.602C383.428 364.273 383.476 363.923 383.45 363.574Z" fill="white"/>
<g opacity="0.6">
<path d="M282.923 148.54L280.547 145.154C280.324 145.154 280.088 145.154 279.852 145.154H277.135V148.501H275.56V137.476H279.852C282.713 137.476 284.445 138.932 284.445 141.321C284.482 142.086 284.265 142.841 283.828 143.47C283.392 144.099 282.76 144.566 282.03 144.8L284.655 148.501L282.923 148.54ZM282.923 141.361C282.923 139.786 281.873 138.893 279.852 138.893H277.227V143.855H279.852C281.82 143.855 282.87 142.936 282.87 141.361H282.923Z" fill="#263238"/>
<path d="M294.289 144.878H287.53C287.625 145.593 287.991 146.244 288.553 146.696C289.115 147.148 289.83 147.367 290.548 147.307C290.997 147.323 291.444 147.243 291.859 147.071C292.273 146.899 292.646 146.639 292.95 146.309L293.79 147.28C293.175 147.906 292.39 148.34 291.533 148.53C290.675 148.719 289.781 148.656 288.959 148.347C288.137 148.039 287.421 147.499 286.9 146.792C286.378 146.086 286.073 145.243 286.02 144.367C285.997 143.807 286.088 143.249 286.289 142.727C286.491 142.205 286.797 141.729 287.19 141.331C287.583 140.932 288.053 140.618 288.572 140.409C289.091 140.199 289.648 140.099 290.207 140.114C290.765 140.1 291.319 140.202 291.834 140.414C292.35 140.625 292.817 140.941 293.204 141.342C293.591 141.743 293.891 142.22 294.085 142.743C294.278 143.266 294.361 143.823 294.329 144.38C294.33 144.547 294.316 144.714 294.289 144.878ZM287.53 143.789H292.885C292.885 143.081 292.603 142.401 292.102 141.9C291.602 141.399 290.922 141.118 290.214 141.118C289.505 141.118 288.826 141.399 288.325 141.9C287.824 142.401 287.543 143.081 287.543 143.789H287.53Z" fill="#263238"/>
<path d="M295.365 147.661L295.995 146.466C296.868 147.03 297.884 147.33 298.922 147.333C300.327 147.333 300.904 146.9 300.904 146.191C300.904 144.327 295.654 145.941 295.654 142.621C295.654 141.124 296.967 140.114 299.132 140.114C300.192 140.098 301.237 140.361 302.164 140.875L301.521 142.069C300.801 141.622 299.966 141.394 299.119 141.413C297.807 141.413 297.15 141.899 297.15 142.555C297.15 144.524 302.4 142.923 302.4 146.165C302.4 147.674 301.009 148.632 298.791 148.632C297.577 148.661 296.383 148.322 295.365 147.661Z" fill="#263238"/>
<path d="M311.825 144.878H305.052C305.153 145.591 305.521 146.238 306.082 146.688C306.643 147.139 307.354 147.36 308.071 147.307C308.521 147.324 308.97 147.243 309.387 147.071C309.804 146.899 310.179 146.639 310.486 146.309L311.326 147.28C310.905 147.725 310.392 148.072 309.823 148.299C309.254 148.525 308.643 148.626 308.032 148.593C307.45 148.637 306.865 148.559 306.315 148.363C305.766 148.167 305.263 147.859 304.84 147.457C304.417 147.055 304.083 146.568 303.86 146.029C303.636 145.49 303.528 144.91 303.543 144.327C303.521 143.768 303.614 143.211 303.816 142.69C304.018 142.168 304.324 141.694 304.717 141.295C305.109 140.897 305.579 140.583 306.097 140.373C306.615 140.163 307.171 140.061 307.73 140.074C308.291 140.058 308.85 140.16 309.369 140.373C309.889 140.586 310.358 140.906 310.746 141.312C311.135 141.717 311.434 142.2 311.624 142.728C311.814 143.257 311.892 143.819 311.851 144.38C311.851 144.537 311.838 144.734 311.825 144.878ZM305.052 143.789H310.407C310.341 143.125 310.031 142.508 309.536 142.06C309.041 141.612 308.397 141.364 307.73 141.364C307.062 141.364 306.418 141.612 305.923 142.06C305.428 142.508 305.118 143.125 305.052 143.789Z" fill="#263238"/>
<path d="M318.65 148.055C318.126 148.451 317.482 148.655 316.826 148.632C316.472 148.669 316.114 148.627 315.779 148.508C315.444 148.389 315.139 148.197 314.887 147.945C314.636 147.694 314.444 147.389 314.325 147.054C314.206 146.718 314.164 146.361 314.201 146.007V141.426H312.783V140.179H314.201V138.355H315.71V140.179H318.099V141.426H315.71V145.941C315.684 146.124 315.699 146.31 315.755 146.486C315.81 146.662 315.904 146.823 316.03 146.958C316.156 147.093 316.311 147.197 316.482 147.264C316.654 147.332 316.839 147.359 317.023 147.346C317.449 147.348 317.864 147.209 318.204 146.952L318.65 148.055Z" fill="#263238"/>
<path d="M333.823 141.361C333.823 143.749 332.091 145.206 329.229 145.206H326.513V148.54H324.938V137.515H329.229C332.091 137.515 333.823 138.972 333.823 141.361ZM332.248 141.361C332.248 139.786 331.198 138.893 329.177 138.893H326.552V143.828H329.177C331.198 143.828 332.261 142.936 332.261 141.361H332.248Z" fill="#263238"/>
<path d="M342.46 143.5V148.54H341.029V147.438C340.71 147.852 340.291 148.179 339.812 148.388C339.332 148.597 338.807 148.681 338.286 148.632C336.396 148.632 335.202 147.621 335.202 146.178C335.202 144.734 336.068 143.736 338.549 143.736H340.951V143.434C340.951 142.122 340.202 141.426 338.706 141.426C337.755 141.418 336.83 141.733 336.081 142.319L335.451 141.19C336.449 140.456 337.665 140.077 338.903 140.114C341.174 140.114 342.46 141.216 342.46 143.5ZM340.951 145.994V144.826H338.614C337.118 144.826 336.698 145.403 336.698 146.138C336.698 146.873 337.394 147.451 338.536 147.451C339.04 147.492 339.544 147.373 339.978 147.111C340.411 146.85 340.751 146.459 340.951 145.994Z" fill="#263238"/>
<path d="M344.206 147.661L344.836 146.466C345.708 147.029 346.724 147.33 347.763 147.333C349.167 147.333 349.758 146.899 349.758 146.191C349.758 144.327 344.507 145.941 344.507 142.621C344.507 141.124 345.82 140.114 347.986 140.114C349.046 140.096 350.092 140.359 351.018 140.875L350.374 142.069C349.655 141.621 348.82 141.393 347.973 141.413C346.66 141.413 346.004 141.899 346.004 142.555C346.004 144.524 351.254 142.922 351.254 146.164C351.254 147.674 349.863 148.632 347.644 148.632C346.427 148.661 345.228 148.323 344.206 147.661Z" fill="#263238"/>
<path d="M352.107 147.661L352.737 146.466C353.609 147.031 354.625 147.332 355.664 147.333C357.055 147.333 357.646 146.9 357.646 146.191C357.646 144.327 352.396 145.941 352.396 142.621C352.396 141.124 353.708 140.114 355.874 140.114C356.938 140.098 357.987 140.361 358.919 140.875L358.263 142.069C357.543 141.621 356.708 141.393 355.861 141.413C354.548 141.413 353.892 141.899 353.892 142.555C353.892 144.524 359.142 142.923 359.142 146.164C359.142 147.674 357.751 148.632 355.533 148.632C354.319 148.663 353.124 148.325 352.107 147.661Z" fill="#263238"/>
<path d="M373.514 140.192L370.403 148.54H369.012L366.61 142.214L364.169 148.54H362.712L359.614 140.192H361.045L363.473 146.847L365.993 140.192H367.306L369.773 146.873L372.267 140.192H373.514Z" fill="#263238"/>
<path d="M374.04 144.379C374.024 143.517 374.265 142.669 374.733 141.945C375.201 141.22 375.874 140.651 376.666 140.31C377.459 139.969 378.334 139.872 379.182 140.03C380.03 140.189 380.812 140.596 381.427 141.201C382.043 141.805 382.464 142.579 382.638 143.424C382.813 144.268 382.731 145.146 382.405 145.944C382.078 146.743 381.522 147.426 380.806 147.907C380.09 148.388 379.247 148.645 378.384 148.645C377.813 148.67 377.244 148.578 376.71 148.374C376.177 148.169 375.691 147.857 375.284 147.457C374.876 147.057 374.555 146.577 374.341 146.048C374.127 145.518 374.025 144.95 374.04 144.379ZM381.193 144.379C381.167 143.83 380.981 143.301 380.657 142.856C380.333 142.412 379.886 142.072 379.371 141.88C378.856 141.687 378.296 141.65 377.76 141.773C377.224 141.895 376.736 142.173 376.356 142.57C375.976 142.968 375.722 143.468 375.623 144.009C375.525 144.55 375.588 145.108 375.804 145.614C376.02 146.119 376.379 146.55 376.838 146.854C377.297 147.157 377.834 147.319 378.384 147.319C378.767 147.33 379.148 147.259 379.502 147.113C379.856 146.968 380.176 146.749 380.44 146.472C380.705 146.195 380.909 145.866 381.038 145.505C381.168 145.145 381.221 144.761 381.193 144.379Z" fill="#263238"/>
<path d="M389.305 140.114V141.584H388.95C388.583 141.559 388.215 141.616 387.872 141.751C387.53 141.886 387.222 142.096 386.971 142.365C386.72 142.634 386.531 142.955 386.42 143.306C386.308 143.657 386.276 144.028 386.325 144.393V148.553H384.763V140.206H386.207V141.61C386.527 141.092 386.989 140.676 387.538 140.411C388.087 140.146 388.699 140.043 389.305 140.114Z" fill="#263238"/>
<path d="M398.951 136.858V148.54H397.507V147.228C397.164 147.689 396.713 148.059 396.193 148.306C395.674 148.553 395.102 148.669 394.528 148.645C393.439 148.585 392.415 148.11 391.665 147.317C390.916 146.525 390.499 145.476 390.499 144.386C390.499 143.295 390.916 142.246 391.665 141.454C392.415 140.662 393.439 140.187 394.528 140.127C395.082 140.104 395.634 140.211 396.14 140.439C396.646 140.667 397.091 141.009 397.442 141.439V136.845L398.951 136.858ZM397.455 144.379C397.429 143.83 397.242 143.299 396.918 142.855C396.593 142.41 396.146 142.071 395.63 141.879C395.114 141.686 394.553 141.65 394.017 141.774C393.481 141.898 392.993 142.176 392.613 142.575C392.234 142.974 391.98 143.475 391.884 144.017C391.787 144.559 391.852 145.117 392.07 145.623C392.288 146.128 392.649 146.558 393.109 146.86C393.57 147.162 394.109 147.321 394.659 147.319C395.041 147.328 395.42 147.256 395.773 147.109C396.125 146.963 396.443 146.744 396.707 146.467C396.97 146.19 397.172 145.862 397.301 145.502C397.43 145.143 397.482 144.76 397.455 144.379Z" fill="#263238"/>
</g>
<path d="M423.01 248.28H251.277V277.681H423.01V248.28Z" fill="white"/>
<g opacity="0.4">
<path d="M267.724 258.19V266.616H266.989L261.568 259.778V266.616H260.676V258.19H261.385L266.818 265.028V258.19H267.724Z" fill="#263238"/>
<path d="M275.822 263.715H270.572C270.588 264.025 270.667 264.328 270.801 264.607C270.936 264.886 271.125 265.135 271.357 265.34C271.589 265.545 271.86 265.702 272.153 265.802C272.446 265.902 272.757 265.942 273.066 265.921C273.428 265.932 273.789 265.864 274.122 265.721C274.455 265.578 274.753 265.364 274.995 265.094L275.481 265.645C275.026 266.12 274.441 266.45 273.8 266.595C273.158 266.74 272.488 266.692 271.873 266.458C271.259 266.224 270.726 265.815 270.343 265.28C269.96 264.746 269.743 264.11 269.719 263.453C269.695 263.036 269.758 262.618 269.903 262.226C270.048 261.834 270.272 261.476 270.561 261.174C270.851 260.872 271.199 260.634 271.585 260.472C271.97 260.311 272.385 260.231 272.803 260.237C273.221 260.229 273.636 260.308 274.022 260.468C274.408 260.629 274.756 260.868 275.045 261.17C275.334 261.473 275.557 261.832 275.699 262.225C275.842 262.618 275.902 263.036 275.874 263.453C275.822 263.532 275.822 263.624 275.822 263.715ZM270.572 263.085H275.061C275.061 262.49 274.824 261.919 274.403 261.498C273.982 261.078 273.412 260.841 272.816 260.841C272.221 260.841 271.65 261.078 271.229 261.498C270.808 261.919 270.572 262.49 270.572 263.085Z" fill="#263238"/>
<path d="M286.729 260.29L284.341 266.616H283.527L281.532 261.432L279.537 266.616H278.723L276.347 260.29H277.135L279.117 265.671L281.151 260.29H281.886L283.907 265.671L285.916 260.29H286.729Z" fill="#263238"/>
<path d="M297.951 261.077C297.951 262.876 296.639 263.965 294.512 263.965H292.242V266.59H291.349V258.164H294.512C296.652 258.19 297.951 259.279 297.951 261.077ZM297.059 261.077C297.059 259.765 296.166 258.964 294.434 258.964H292.189V263.177H294.434C296.166 263.177 297.059 262.403 297.059 261.077Z" fill="#263238"/>
<path d="M304.409 262.692V266.629H303.595V265.645C303.36 266 303.034 266.285 302.65 266.47C302.267 266.655 301.841 266.733 301.417 266.695C299.986 266.695 299.106 265.947 299.106 264.858C299.106 263.768 299.736 263.059 301.548 263.059H303.556V262.679C303.579 262.443 303.548 262.205 303.464 261.984C303.381 261.762 303.248 261.563 303.076 261.4C302.904 261.238 302.696 261.118 302.47 261.048C302.244 260.978 302.005 260.961 301.771 260.999C300.999 260.985 300.249 261.251 299.658 261.747L299.277 261.104C300.024 260.518 300.954 260.216 301.902 260.251C302.235 260.21 302.574 260.244 302.892 260.352C303.21 260.459 303.5 260.636 303.741 260.87C303.981 261.105 304.166 261.39 304.282 261.705C304.398 262.02 304.441 262.358 304.409 262.692ZM303.556 264.713V263.676H301.574C300.34 263.676 299.946 264.162 299.946 264.818C299.946 265.474 300.537 266.013 301.548 266.013C301.977 266.038 302.404 265.925 302.765 265.692C303.126 265.458 303.403 265.115 303.556 264.713Z" fill="#263238"/>
<path d="M305.853 265.894L306.246 265.225C306.901 265.693 307.687 265.941 308.491 265.934C309.698 265.934 310.197 265.527 310.197 264.897C310.197 263.243 306.089 264.556 306.089 262.049C306.089 261.012 306.981 260.237 308.596 260.237C309.379 260.229 310.15 260.433 310.827 260.828L310.46 261.511C309.906 261.149 309.257 260.962 308.596 260.972C307.441 260.972 306.942 261.419 306.942 262.022C306.942 263.729 311.05 262.442 311.05 264.871C311.05 265.973 310.079 266.682 308.425 266.682C307.505 266.704 306.603 266.428 305.853 265.894Z" fill="#263238"/>
<path d="M311.747 265.895L312.127 265.225C312.789 265.687 313.577 265.935 314.385 265.934C315.579 265.934 316.078 265.527 316.078 264.897C316.078 263.243 311.97 264.556 311.97 262.049C311.97 261.012 312.862 260.237 314.477 260.237C315.264 260.23 316.039 260.434 316.721 260.828L316.34 261.511C315.788 261.146 315.138 260.958 314.477 260.973C313.335 260.973 312.823 261.419 312.823 262.023C312.823 263.729 316.931 262.443 316.931 264.871C316.931 265.973 315.973 266.682 314.306 266.682C313.39 266.706 312.491 266.429 311.747 265.895Z" fill="#263238"/>
<path d="M327.68 260.29L325.292 266.616H324.478L322.483 261.432L320.448 266.616H319.634L317.259 260.29H318.073L320.055 265.671L322.089 260.29H322.824L324.845 265.671L326.853 260.29H327.68Z" fill="#263238"/>
<path d="M328.153 263.453C328.156 262.818 328.346 262.198 328.701 261.672C329.055 261.145 329.557 260.735 330.144 260.493C330.731 260.251 331.377 260.189 332 260.313C332.622 260.438 333.194 260.744 333.643 261.192C334.092 261.641 334.398 262.213 334.522 262.836C334.647 263.458 334.584 264.104 334.342 264.691C334.101 265.278 333.69 265.78 333.164 266.135C332.637 266.489 332.017 266.679 331.382 266.682C330.954 266.699 330.526 266.626 330.127 266.47C329.728 266.314 329.365 266.076 329.062 265.773C328.759 265.47 328.522 265.107 328.365 264.708C328.209 264.309 328.137 263.882 328.153 263.453ZM333.718 263.453C333.695 262.994 333.538 262.551 333.265 262.18C332.993 261.81 332.618 261.527 332.186 261.367C331.755 261.208 331.286 261.179 330.838 261.283C330.39 261.388 329.982 261.622 329.666 261.956C329.35 262.29 329.138 262.71 329.058 263.163C328.978 263.616 329.033 264.082 329.216 264.505C329.399 264.927 329.701 265.286 330.086 265.538C330.471 265.79 330.922 265.923 331.382 265.921C331.701 265.925 332.018 265.863 332.312 265.739C332.606 265.615 332.872 265.431 333.091 265.199C333.311 264.967 333.48 264.692 333.588 264.392C333.696 264.091 333.74 263.772 333.718 263.453Z" fill="#263238"/>
<path d="M339.533 260.237V261.077H339.323C339.022 261.061 338.721 261.111 338.442 261.225C338.163 261.339 337.912 261.513 337.709 261.735C337.506 261.957 337.354 262.222 337.265 262.51C337.177 262.798 337.153 263.102 337.196 263.401V266.629H336.33V260.303H337.157V261.537C337.375 261.105 337.719 260.75 338.143 260.518C338.567 260.286 339.052 260.188 339.533 260.237Z" fill="#263238"/>
<path d="M346.778 257.691V266.616H345.964V265.37C345.711 265.786 345.352 266.128 344.922 266.359C344.493 266.589 344.01 266.701 343.523 266.682C342.704 266.63 341.935 266.268 341.374 265.669C340.812 265.07 340.5 264.281 340.5 263.46C340.5 262.639 340.812 261.849 341.374 261.251C341.935 260.652 342.704 260.29 343.523 260.237C344.003 260.227 344.477 260.342 344.899 260.573C345.32 260.803 345.674 261.14 345.925 261.55V257.744L346.778 257.691ZM345.938 263.453C345.915 262.994 345.757 262.552 345.486 262.182C345.214 261.811 344.839 261.528 344.408 261.369C343.978 261.209 343.509 261.179 343.062 261.282C342.614 261.386 342.207 261.618 341.89 261.951C341.573 262.284 341.36 262.702 341.279 263.155C341.198 263.607 341.25 264.073 341.431 264.496C341.612 264.918 341.913 265.278 342.296 265.532C342.679 265.785 343.129 265.92 343.588 265.921C343.909 265.927 344.227 265.866 344.522 265.743C344.818 265.62 345.085 265.436 345.306 265.204C345.527 264.972 345.697 264.697 345.806 264.395C345.915 264.094 345.96 263.773 345.938 263.453Z" fill="#263238"/>
</g>
<path d="M423.01 181.853H251.277V211.253H423.01V181.853Z" fill="white"/>
<g opacity="0.4">
<path d="M259.94 195.975C259.911 195.095 260.146 194.226 260.614 193.48C261.082 192.734 261.763 192.144 262.568 191.787C263.373 191.43 264.267 191.322 265.134 191.476C266.001 191.63 266.803 192.039 267.436 192.652C268.069 193.264 268.505 194.052 268.688 194.914C268.871 195.775 268.792 196.672 268.462 197.489C268.132 198.305 267.565 199.005 266.835 199.498C266.105 199.99 265.244 200.254 264.363 200.254C263.788 200.279 263.213 200.187 262.675 199.982C262.137 199.778 261.645 199.466 261.232 199.066C260.818 198.665 260.49 198.185 260.268 197.654C260.045 197.122 259.934 196.551 259.94 195.975ZM267.894 195.975C267.904 195.272 267.705 194.581 267.321 193.991C266.938 193.401 266.387 192.939 265.74 192.663C265.093 192.387 264.378 192.31 263.687 192.442C262.995 192.574 262.359 192.908 261.859 193.403C261.358 193.898 261.017 194.53 260.877 195.22C260.737 195.91 260.806 196.625 261.075 197.276C261.344 197.926 261.8 198.482 262.385 198.872C262.971 199.262 263.659 199.469 264.363 199.467C264.832 199.49 265.301 199.417 265.74 199.251C266.18 199.085 266.58 198.83 266.916 198.503C267.253 198.175 267.518 197.781 267.695 197.346C267.872 196.912 267.958 196.445 267.946 195.975H267.894Z" fill="#263238"/>
<path d="M270.571 191.25H271.424V200.189H270.571V191.25Z" fill="#263238"/>
<path d="M279.615 191.25V200.189H278.801V198.876C278.546 199.291 278.186 199.631 277.757 199.862C277.329 200.092 276.846 200.205 276.36 200.189C275.507 200.189 274.689 199.85 274.086 199.247C273.483 198.644 273.144 197.826 273.144 196.973C273.144 196.12 273.483 195.302 274.086 194.699C274.689 194.096 275.507 193.757 276.36 193.757C276.84 193.748 277.314 193.864 277.735 194.094C278.156 194.324 278.51 194.661 278.762 195.07V191.263L279.615 191.25ZM278.775 197.012C278.754 196.549 278.598 196.103 278.326 195.728C278.053 195.354 277.677 195.067 277.243 194.905C276.809 194.742 276.337 194.711 275.886 194.815C275.434 194.918 275.023 195.153 274.704 195.488C274.384 195.824 274.17 196.246 274.089 196.702C274.007 197.158 274.062 197.628 274.245 198.053C274.429 198.478 274.733 198.841 275.121 199.094C275.508 199.348 275.962 199.482 276.425 199.48C276.745 199.484 277.062 199.422 277.357 199.298C277.652 199.174 277.918 198.991 278.139 198.759C278.359 198.527 278.53 198.252 278.639 197.952C278.749 197.651 278.795 197.332 278.775 197.012Z" fill="#263238"/>
<path d="M291.926 194.65C291.926 196.435 290.614 197.524 288.487 197.524H286.23V200.149H285.337V191.762H288.487C290.627 191.762 291.926 192.839 291.926 194.65ZM291.034 194.65C291.034 193.337 290.141 192.524 288.409 192.524H286.177V196.737H288.409C290.141 196.737 291.034 195.976 291.034 194.65Z" fill="#263238"/>
<path d="M298.397 196.264V200.202H297.57V199.204C297.336 199.559 297.009 199.844 296.626 200.029C296.242 200.214 295.816 200.292 295.392 200.254C293.961 200.254 293.082 199.506 293.082 198.417C293.082 197.327 293.712 196.619 295.523 196.619H297.544V196.238C297.544 195.149 296.927 194.558 295.746 194.558C294.975 194.549 294.226 194.814 293.633 195.306L293.252 194.676C293.996 194.084 294.928 193.781 295.877 193.823C296.211 193.782 296.55 193.817 296.868 193.924C297.187 194.032 297.478 194.209 297.719 194.443C297.961 194.677 298.147 194.962 298.264 195.277C298.382 195.592 298.427 195.929 298.397 196.264ZM297.544 198.286V197.249H295.51C294.289 197.249 293.882 197.734 293.882 198.377C293.882 199.021 294.473 199.572 295.483 199.572C295.92 199.608 296.356 199.502 296.727 199.27C297.098 199.038 297.385 198.693 297.544 198.286Z" fill="#263238"/>
<path d="M299.841 199.506L300.222 198.823C300.88 199.294 301.671 199.543 302.48 199.532C303.674 199.532 304.173 199.125 304.173 198.508C304.173 196.855 300.064 198.154 300.064 195.647C300.064 194.61 300.957 193.849 302.571 193.849C303.36 193.836 304.136 194.04 304.816 194.44L304.435 195.122C303.883 194.757 303.233 194.57 302.571 194.584C301.429 194.584 300.918 195.017 300.918 195.621C300.918 197.34 305.026 196.041 305.026 198.482C305.026 199.572 304.068 200.28 302.401 200.28C301.486 200.308 300.587 200.036 299.841 199.506Z" fill="#263238"/>
<path d="M305.722 199.506L306.115 198.824C306.767 199.297 307.555 199.546 308.36 199.532C309.567 199.532 310.053 199.125 310.053 198.509C310.053 196.855 305.958 198.154 305.958 195.647C305.958 194.61 306.85 193.849 308.452 193.849C309.24 193.832 310.018 194.037 310.696 194.44L310.329 195.122C309.771 194.759 309.117 194.571 308.452 194.584C307.31 194.584 306.811 195.017 306.811 195.621C306.811 197.34 310.919 196.041 310.919 198.482C310.919 199.572 309.948 200.28 308.294 200.28C307.376 200.306 306.473 200.035 305.722 199.506Z" fill="#263238"/>
<path d="M321.656 193.849L319.267 200.189H318.466L316.458 194.939L314.463 200.189H313.662L311.26 193.849H312.074L314.069 199.231L316.104 193.849H316.839L318.86 199.231L320.868 193.849H321.656Z" fill="#263238"/>
<path d="M322.128 197.012C322.128 196.374 322.318 195.75 322.672 195.219C323.027 194.688 323.532 194.274 324.122 194.029C324.712 193.785 325.361 193.721 325.987 193.846C326.613 193.97 327.189 194.278 327.64 194.729C328.092 195.181 328.399 195.756 328.524 196.382C328.649 197.009 328.585 197.658 328.34 198.248C328.096 198.838 327.682 199.342 327.151 199.697C326.62 200.052 325.996 200.241 325.357 200.241C324.929 200.258 324.501 200.186 324.102 200.029C323.703 199.873 323.34 199.636 323.037 199.332C322.734 199.029 322.497 198.667 322.34 198.267C322.184 197.868 322.112 197.441 322.128 197.012ZM327.707 197.012C327.686 196.55 327.53 196.103 327.257 195.728C326.985 195.354 326.609 195.067 326.175 194.905C325.741 194.742 325.269 194.711 324.817 194.815C324.366 194.919 323.955 195.153 323.635 195.488C323.316 195.824 323.102 196.246 323.021 196.702C322.939 197.158 322.994 197.628 323.177 198.053C323.36 198.479 323.665 198.841 324.053 199.094C324.44 199.348 324.894 199.482 325.357 199.48C325.678 199.486 325.996 199.426 326.291 199.302C326.587 199.179 326.854 198.995 327.075 198.763C327.296 198.531 327.466 198.256 327.575 197.954C327.684 197.653 327.729 197.332 327.707 197.012Z" fill="#263238"/>
<path d="M333.573 193.81V194.636H333.363C333.062 194.622 332.761 194.674 332.482 194.789C332.203 194.905 331.953 195.08 331.749 195.303C331.546 195.527 331.395 195.792 331.306 196.081C331.218 196.369 331.194 196.674 331.237 196.973V200.202H330.384V193.862H331.198V195.109C331.417 194.679 331.761 194.324 332.185 194.093C332.609 193.861 333.093 193.762 333.573 193.81Z" fill="#263238"/>
<path d="M340.766 191.25V200.189H339.952V198.876C339.696 199.292 339.333 199.632 338.902 199.863C338.471 200.094 337.986 200.206 337.498 200.189C336.645 200.189 335.827 199.85 335.224 199.247C334.621 198.644 334.282 197.826 334.282 196.973C334.282 196.12 334.621 195.302 335.224 194.699C335.827 194.096 336.645 193.757 337.498 193.757C337.979 193.749 338.455 193.866 338.878 194.096C339.301 194.326 339.658 194.661 339.913 195.07V191.263L340.766 191.25ZM339.926 197.012C339.906 196.549 339.749 196.103 339.477 195.728C339.205 195.353 338.828 195.067 338.394 194.905C337.96 194.742 337.488 194.711 337.037 194.815C336.585 194.918 336.174 195.153 335.855 195.488C335.535 195.824 335.322 196.246 335.24 196.702C335.159 197.158 335.213 197.628 335.397 198.053C335.58 198.478 335.885 198.84 336.272 199.094C336.66 199.348 337.113 199.482 337.577 199.48C337.897 199.484 338.214 199.422 338.509 199.298C338.803 199.174 339.069 198.99 339.29 198.759C339.511 198.527 339.681 198.252 339.79 197.952C339.9 197.651 339.946 197.331 339.926 197.012Z" fill="#263238"/>
</g>
<path d="M493.126 421.575C493.126 421.575 485.014 422.651 481.549 421.575C478.084 420.499 479.384 404.774 475.853 404.446C467.702 403.698 469.093 424.581 472.558 428.978C476.023 433.375 493.861 431.511 493.861 431.511L493.126 421.575Z" fill="#96B1FF"/>
<path opacity="0.2" d="M493.126 421.575C493.126 421.575 485.014 422.651 481.549 421.575C478.084 420.499 479.384 404.774 475.853 404.446C467.702 403.698 469.093 424.581 472.558 428.978C476.023 433.375 493.861 431.511 493.861 431.511L493.126 421.575Z" fill="white"/>
<path d="M493.795 458.602C493.795 458.602 481.785 351.971 496.118 350.75C510.451 349.53 513.916 387.121 508.377 457.25L493.795 458.602Z" fill="#96B1FF"/>
<path opacity="0.3" d="M493.795 458.602C493.795 458.602 481.785 351.971 496.118 350.75C510.451 349.53 513.916 387.121 508.377 457.25L493.795 458.602Z" fill="white"/>
<path d="M476.956 445.699H524.115L520.178 475.862H480.893L476.956 445.699Z" fill="#263238"/>
<path d="M508.036 385.703C508.036 385.703 521.162 386.399 521.49 385.703C521.818 385.008 521.884 369.953 527.422 370.806C532.961 371.659 530.533 389.864 527.422 391.977C524.312 394.09 508.036 395.232 508.036 395.232C508.036 395.232 505.857 388.512 508.036 385.703Z" fill="#96B1FF"/>
<path opacity="0.4" d="M508.036 385.703C508.036 385.703 521.162 386.399 521.49 385.703C521.818 385.008 521.884 369.953 527.422 370.806C532.961 371.659 530.533 389.864 527.422 391.977C524.312 394.09 508.036 395.232 508.036 395.232C508.036 395.232 505.857 388.512 508.036 385.703Z" fill="white"/>
<path d="M499.754 448.889C496.854 420.446 493.703 391.859 494.425 363.232C494.635 361.041 494.78 350.304 498.429 351.945C498.897 352.336 499.254 352.843 499.466 353.415C500.582 356.868 501.287 360.441 501.566 364.059C504.322 392.568 504.112 421.26 503.968 449.86C503.429 421.286 503.39 392.62 500.594 364.178C500.227 360.699 498.127 345.434 495.987 357.234C495.283 363.297 495.024 369.404 495.213 375.505C495.699 400.01 497.68 424.463 499.754 448.889Z" fill="#96B1FF"/>
<path d="M509.677 389.286C513.509 388.919 520.334 388.683 523.616 387.83C523.616 383.328 525.204 377.211 526.818 372.42C526.359 374.56 525.913 377.67 525.506 379.915C524.986 382.618 524.67 385.355 524.561 388.105C524.351 388.748 523.55 388.866 523.038 388.998C518.596 389.599 514.101 389.696 509.637 389.286H509.677Z" fill="#96B1FF"/>
<path d="M509.677 392.765C515.15 391.754 521.253 391.36 526.622 390.074C528.013 387.869 527.934 384.758 528.328 382.199C528.643 379.337 528.879 376.463 529.155 373.589C529.306 376.478 529.306 379.374 529.155 382.264C529.105 384.844 528.708 387.404 527.974 389.877C527.822 390.345 527.51 390.744 527.094 391.006C521.369 392.13 515.551 392.719 509.716 392.765H509.677Z" fill="#96B1FF"/>
<path d="M489.083 424.489C485.303 424.568 481.391 424.751 477.729 423.491C476.825 422.697 476.254 421.591 476.128 420.394C475.658 418.007 475.421 415.581 475.419 413.148C475.364 410.735 475.448 408.32 475.669 405.916C475.852 408.318 475.997 410.72 476.207 413.109C476.365 415.48 476.672 417.838 477.125 420.171C477.401 421.247 477.664 422.599 478.543 422.796C481.99 423.658 485.502 424.233 489.043 424.515L489.083 424.489Z" fill="#96B1FF"/>
<path d="M473.254 407.82L474.107 416.207C474.632 419.869 474.54 423.859 475.997 427.245C476.226 427.418 476.478 427.559 476.745 427.665C480.683 428.978 484.975 429.07 489.083 429.555C486.265 429.702 483.44 429.645 480.63 429.385C478.688 429.056 475.38 429.122 474.711 426.76C473.083 420.577 473.175 414.107 473.254 407.767V407.82Z" fill="#96B1FF"/>
<path d="M443.827 111.002C447.92 103.869 454.677 98.6518 462.613 96.4961C470.549 94.3404 479.017 95.422 486.156 99.5036L484.844 101.722L493.638 99.333L491.249 90.539L489.936 92.7441C481.968 88.1773 472.638 86.5854 463.606 88.2515C454.574 89.9175 446.426 94.7335 440.612 101.843C434.797 108.952 431.693 117.893 431.851 127.076C432.01 136.259 435.421 145.088 441.477 151.992L447.331 146.86C443.084 141.993 440.464 135.921 439.835 129.492C439.207 123.063 440.603 116.599 443.827 111.002Z" fill="#263238"/>
<path d="M500.266 101.315L494.36 106.316C499.083 111.881 501.692 118.933 501.728 126.232C501.765 133.53 499.226 140.608 494.558 146.22C489.891 151.831 483.394 155.617 476.21 156.91C469.027 158.204 461.617 156.922 455.286 153.292L456.598 151.073L447.765 153.567L450.153 162.361L451.466 160.143C459.393 164.653 468.655 166.227 477.626 164.589C486.598 162.951 494.706 158.207 500.529 151.188C506.351 144.169 509.516 135.323 509.468 126.204C509.42 117.084 506.162 108.272 500.266 101.315Z" fill="#263238"/>
<g opacity="0.6">
<path d="M443.827 111.002C447.92 103.869 454.677 98.6518 462.613 96.4961C470.549 94.3404 479.017 95.422 486.156 99.5036L484.844 101.722L493.638 99.333L491.249 90.539L489.936 92.7441C481.968 88.1773 472.638 86.5854 463.606 88.2515C454.574 89.9175 446.426 94.7335 440.612 101.843C434.797 108.952 431.693 117.893 431.851 127.076C432.01 136.259 435.421 145.088 441.477 151.992L447.331 146.86C443.084 141.993 440.464 135.921 439.835 129.492C439.207 123.063 440.603 116.599 443.827 111.002Z" fill="white"/>
<path d="M500.266 101.315L494.36 106.316C499.083 111.881 501.692 118.933 501.728 126.232C501.765 133.53 499.226 140.608 494.558 146.22C489.891 151.831 483.394 155.617 476.21 156.91C469.027 158.204 461.617 156.922 455.286 153.292L456.598 151.073L447.765 153.567L450.153 162.361L451.466 160.143C459.393 164.653 468.655 166.227 477.626 164.589C486.598 162.951 494.706 158.207 500.529 151.188C506.351 144.169 509.516 135.323 509.468 126.204C509.42 117.084 506.162 108.272 500.266 101.315Z" fill="white"/>
</g>
<path d="M465.118 89.6334H456.56V63.3826C456.56 58.5543 454.642 53.9238 451.228 50.5097C447.814 47.0957 443.183 45.1776 438.355 45.1776C433.527 45.1776 428.896 47.0957 425.482 50.5097C422.068 53.9238 420.15 58.5543 420.15 63.3826V89.6334H411.592V63.3826C411.592 56.2847 414.412 49.4775 419.431 44.4585C424.45 39.4395 431.257 36.6199 438.355 36.6199C445.453 36.6199 452.26 39.4395 457.279 44.4585C462.298 49.4775 465.118 56.2847 465.118 63.3826V89.6334Z" fill="#263238"/>
<g opacity="0.3">
<path d="M465.118 89.6334H456.56V63.3826C456.56 58.5543 454.642 53.9238 451.228 50.5097C447.814 47.0957 443.183 45.1776 438.355 45.1776C433.527 45.1776 428.896 47.0957 425.482 50.5097C422.068 53.9238 420.15 58.5543 420.15 63.3826V89.6334H411.592V63.3826C411.592 56.2847 414.412 49.4775 419.431 44.4585C424.45 39.4395 431.257 36.6199 438.355 36.6199C445.453 36.6199 452.26 39.4395 457.279 44.4585C462.298 49.4775 465.118 56.2847 465.118 63.3826V89.6334Z" fill="white"/>
</g>
<path d="M474.921 82.9526V125.912C474.921 126.567 474.792 127.216 474.542 127.821C474.291 128.426 473.924 128.976 473.461 129.439C472.997 129.902 472.448 130.269 471.842 130.52C471.237 130.771 470.589 130.9 469.934 130.9H406.748C406.095 130.898 405.448 130.768 404.845 130.516C404.242 130.264 403.695 129.897 403.234 129.433C402.774 128.97 402.409 128.421 402.16 127.817C401.912 127.213 401.785 126.565 401.787 125.912V82.9526C401.785 82.2993 401.912 81.6521 402.16 81.0479C402.409 80.4437 402.774 79.8944 403.234 79.4312C403.695 78.9681 404.242 78.6002 404.845 78.3486C405.448 78.0971 406.095 77.9667 406.748 77.965H469.934C470.76 77.9591 471.574 78.1671 472.296 78.5687C473.091 78.9915 473.756 79.6231 474.218 80.3956C474.681 81.1681 474.924 82.0522 474.921 82.9526Z" fill="#96B1FF"/>
<path opacity="0.2" d="M472.296 78.5687V120.662C472.296 121.316 472.167 121.964 471.916 122.569C471.666 123.173 471.298 123.722 470.835 124.184C470.371 124.646 469.821 125.012 469.216 125.262C468.611 125.511 467.963 125.638 467.309 125.636H404.123C403.307 125.639 402.503 125.436 401.787 125.046V82.9526C401.785 82.2993 401.912 81.6521 402.16 81.0479C402.409 80.4437 402.774 79.8944 403.234 79.4312C403.695 78.9681 404.242 78.6002 404.845 78.3486C405.448 78.0971 406.095 77.9667 406.748 77.965H469.934C470.76 77.9591 471.574 78.1671 472.296 78.5687Z" fill="white"/>
<path opacity="0.5" d="M447.765 99.0444C447.741 97.3314 447.25 95.6574 446.345 94.2029C445.44 92.7485 444.154 91.5688 442.628 90.7909C441.102 90.0131 439.392 89.6667 437.683 89.7891C435.974 89.9114 434.331 90.4979 432.931 91.4853C431.531 92.4727 430.427 93.8235 429.739 95.3921C429.05 96.9607 428.802 98.6876 429.023 100.387C429.243 102.085 429.923 103.692 430.989 105.033C432.055 106.374 433.467 107.398 435.073 107.996L434.64 119.441H442.161L441.045 108.219C443.001 107.613 444.711 106.394 445.921 104.742C447.131 103.09 447.778 101.092 447.765 99.0444Z" fill="black"/>
<path d="M137.178 111.002L141.536 125.006L145.88 111.002H137.178Z" fill="#96B1FF"/>
<path d="M177.159 77.5449H105.901C99.6738 77.5449 94.626 82.5928 94.626 88.8196V104.006C94.626 110.233 99.6738 115.28 105.901 115.28H177.159C183.385 115.28 188.433 110.233 188.433 104.006V88.8196C188.433 82.5928 183.385 77.5449 177.159 77.5449Z" fill="#96B1FF"/>
<path d="M116.676 96.3929L119.144 97.7842L118.501 98.913L115.994 97.443V100.265H114.681V97.443L112.174 98.913L111.531 97.7842L114.025 96.3929L111.531 95.0804L112.174 93.9253L114.681 95.3954V92.5341H115.994V95.3298L118.501 93.8597L119.144 95.0148L116.676 96.3929Z" fill="white"/>
<path d="M125.391 96.3929L127.859 97.7842L127.215 98.913L124.708 97.443V100.265H123.475V97.443L120.941 98.913L120.298 97.7842L122.792 96.3929L120.298 95.0804L120.941 93.9253L123.448 95.3954V92.5341H124.682V95.3298L127.189 93.8597L127.832 95.0148L125.391 96.3929Z" fill="white"/>
<path d="M134.068 96.393L136.535 97.7843L135.892 98.913L133.385 97.443V100.265H132.072V97.443L129.566 98.913L128.922 97.7843L131.403 96.393L128.922 95.0804L129.566 93.9254L132.072 95.3954V92.5997H133.385V95.3954L135.892 93.9254L136.535 95.0804L134.068 96.393Z" fill="white"/>
<path d="M142.823 96.393L145.29 97.7843L144.647 98.913L142.14 97.443V100.265H140.893V97.443L138.386 98.913L137.743 97.7843L140.224 96.393L137.743 95.0804L138.386 93.9254L140.893 95.3954V92.5997H142.14V95.3954L144.647 93.9254L145.29 95.0804L142.823 96.393Z" fill="white"/>
<path d="M151.537 96.393L154.005 97.7843L153.362 98.913L150.842 97.443V100.265H149.529V97.443L147.193 98.913L146.537 97.7843L149.03 96.393L146.537 95.0804L147.193 93.9254L149.7 95.3954V92.5997H151.012V95.3954L153.532 93.9254L154.176 95.0804L151.537 96.393Z" fill="white"/>
<path d="M160.239 96.393L162.72 97.7843L162.077 98.913L159.557 97.443V100.265H158.31V97.443L155.79 98.913L155.146 97.7843L157.64 96.393L155.146 95.0804L155.79 93.9254L158.31 95.3954V92.5997H159.557V95.3954L162.077 93.9254L162.72 95.0804L160.239 96.393Z" fill="white"/>
<path d="M168.955 96.3929L171.422 97.7842L170.779 98.913L168.272 97.443V100.265H166.96V97.443L164.453 98.913L163.81 97.7842L166.303 96.3929L163.81 95.0804L164.453 93.9253L166.96 95.3954V92.5341H168.272V95.3298L170.779 93.8597L171.422 95.0148L168.955 96.3929Z" fill="white"/>
<path d="M198.474 208.786L206.481 203.601L197.464 198.062C197.464 198.062 190.599 203.116 193.355 206.542L198.474 208.786Z" fill="#B55B52"/>
<path d="M210.589 195.083L201.217 192.957L197.463 198.062L206.481 203.601L210.589 195.083Z" fill="#B55B52"/>
<path d="M165.569 191.959C170.635 199.624 175.715 208.943 182.632 214.915C182.763 215.02 182.711 214.915 182.199 214.915C181.936 214.981 182.067 215.112 182.606 214.915C184.181 214.018 185.567 212.823 186.688 211.398C189.254 208.287 191.539 204.953 193.513 201.436C193.605 201.291 193.513 201.436 193.513 201.593C193.48 201.833 193.48 202.075 193.513 202.315C193.631 202.433 193.211 202.092 194.025 203.89C194.408 204.464 194.954 204.911 195.591 205.175C196.229 205.439 196.931 205.508 197.608 205.373C198.041 205.28 198.451 205.097 198.81 204.837C199.169 204.578 199.47 204.246 199.695 203.864C199.49 204.106 199.305 204.365 199.144 204.638L193.263 202.131C193.406 201.296 193.748 200.508 194.261 199.834C194.736 199.3 195.364 198.924 196.059 198.758C196.741 198.624 197.448 198.695 198.09 198.961C198.732 199.227 199.281 199.677 199.669 200.254C200.482 202.066 200.075 201.724 200.194 201.856C200.208 202.275 200.169 202.694 200.075 203.102C198.015 211.857 192.633 226.282 181.477 226.361C173.602 225.639 167.629 216.989 163.206 211.529C160.067 207.325 157.175 202.943 154.543 198.404L165.503 191.972L165.569 191.959Z" fill="#B55B52"/>
<path d="M161.526 186.197C166.776 187.93 177.421 212.12 177.421 212.12L159.334 220.704C159.334 220.704 155.659 201.698 156.381 195.569C156.833 191.901 158.675 188.547 161.526 186.197Z" fill="#96B1FF"/>
<path opacity="0.7" d="M161.526 186.197C166.776 187.93 177.421 212.12 177.421 212.12L159.334 220.704C159.334 220.704 155.659 201.698 156.381 195.569C156.833 191.901 158.675 188.547 161.526 186.197Z" fill="white"/>
<path d="M182.789 466.648L173.575 469.259L171.383 454.913L170.202 447.248L179.416 444.636L180.991 454.913L182.789 466.648Z" fill="#B55B52"/>
<path d="M129.816 467.396L120.313 468.656L120.221 454.913L120.155 446.369L129.671 445.135L129.737 454.913L129.816 467.396Z" fill="#B55B52"/>
<path opacity="0.2" d="M129.671 445.135L129.737 454.913H120.221L120.155 446.369L129.671 445.135Z" fill="black"/>
<path opacity="0.2" d="M180.991 454.913H171.383L170.202 447.248L179.416 444.636L180.991 454.913Z" fill="black"/>
<path d="M182.632 465.204L172.131 464.928C171.941 464.922 171.754 464.981 171.601 465.096C171.448 465.21 171.339 465.373 171.291 465.558L169.099 473.985C169.031 474.188 169.012 474.405 169.047 474.616C169.081 474.828 169.167 475.028 169.296 475.199C169.426 475.37 169.595 475.507 169.79 475.597C169.984 475.687 170.198 475.729 170.412 475.717C174.192 475.717 179.6 475.717 184.391 475.809C189.943 475.967 193.473 475.691 199.984 475.809C203.921 475.914 205.142 471.99 203.514 471.583C196.072 469.745 191.216 470.113 184.876 465.965C184.212 465.51 183.436 465.247 182.632 465.204Z" fill="#263238"/>
<path d="M183.432 466.372C183.424 466.325 183.431 466.277 183.452 466.234C183.474 466.192 183.508 466.157 183.55 466.136C183.996 465.926 187.921 464.075 189.063 464.757C189.171 464.82 189.261 464.91 189.323 465.018C189.385 465.126 189.418 465.249 189.417 465.374C189.43 465.58 189.393 465.786 189.311 465.975C189.229 466.165 189.103 466.332 188.945 466.464C187.868 467.356 185.138 466.91 183.603 466.556C183.558 466.547 183.518 466.525 183.487 466.492C183.456 466.459 183.437 466.417 183.432 466.372ZM184.364 466.267C186.477 466.674 188.052 466.621 188.656 466.109C188.763 466.027 188.847 465.918 188.899 465.794C188.952 465.67 188.972 465.535 188.958 465.401C188.962 465.351 188.952 465.301 188.928 465.257C188.905 465.213 188.87 465.176 188.826 465.151H188.748C188.026 464.849 185.913 465.584 184.364 466.267Z" fill="#96B1FF"/>
<path d="M183.511 466.516C183.479 466.496 183.454 466.466 183.44 466.43C183.426 466.395 183.423 466.356 183.432 466.319C183.57 464.967 184.136 463.693 185.047 462.684C185.227 462.534 185.438 462.424 185.664 462.363C185.891 462.302 186.128 462.29 186.359 462.329C186.976 462.408 187.147 462.723 187.186 462.986C187.317 464.062 184.955 466.07 183.774 466.556C183.722 466.569 183.668 466.569 183.616 466.556L183.511 466.516ZM186.254 462.776C186.089 462.753 185.921 462.765 185.761 462.811C185.601 462.856 185.452 462.933 185.322 463.038C184.595 463.846 184.137 464.859 184.01 465.939C185.217 465.269 186.832 463.694 186.74 463.038C186.74 463.038 186.74 462.894 186.543 462.828L186.254 462.776Z" fill="#96B1FF"/>
<path d="M129.434 465.204L118.934 464.928C118.743 464.922 118.556 464.981 118.403 465.096C118.25 465.21 118.141 465.373 118.094 465.558L115.889 473.985C115.835 474.187 115.828 474.399 115.868 474.605C115.909 474.811 115.995 475.004 116.122 475.171C116.248 475.338 116.411 475.474 116.598 475.569C116.786 475.664 116.992 475.714 117.201 475.717C120.968 475.717 126.389 475.717 131.18 475.809C136.732 475.967 140.249 475.691 146.76 475.809C150.697 475.914 151.931 471.99 150.29 471.583C142.861 469.745 137.992 470.113 131.665 465.965C131.004 465.514 130.233 465.251 129.434 465.204Z" fill="#263238"/>
<path d="M130.13 466.372C130.123 466.324 130.132 466.274 130.156 466.232C130.179 466.189 130.216 466.155 130.261 466.136C130.707 465.926 134.619 464.075 135.761 464.757C135.869 464.82 135.958 464.91 136.021 465.018C136.083 465.126 136.115 465.249 136.115 465.374C136.129 465.579 136.095 465.784 136.015 465.974C135.935 466.163 135.812 466.331 135.656 466.464C134.566 467.356 131.836 466.91 130.3 466.556C130.258 466.544 130.219 466.521 130.189 466.488C130.158 466.456 130.138 466.415 130.13 466.372ZM131.075 466.267C133.175 466.674 134.763 466.621 135.367 466.109C135.472 466.025 135.554 465.917 135.607 465.793C135.66 465.669 135.681 465.534 135.669 465.401C135.669 465.35 135.655 465.3 135.63 465.257C135.604 465.213 135.568 465.176 135.524 465.151H135.446C134.789 464.849 132.676 465.584 131.127 466.267H131.075Z" fill="#96B1FF"/>
<path d="M130.275 466.516C130.242 466.496 130.215 466.467 130.199 466.432C130.183 466.397 130.177 466.358 130.183 466.32C130.327 464.966 130.897 463.693 131.81 462.684C131.99 462.533 132.201 462.423 132.428 462.362C132.654 462.301 132.892 462.289 133.123 462.329C133.74 462.408 133.91 462.723 133.937 462.986C134.081 464.062 131.705 466.07 130.537 466.556C130.481 466.569 130.423 466.569 130.367 466.556L130.275 466.516ZM133.018 462.776C132.853 462.753 132.685 462.764 132.524 462.809C132.364 462.855 132.215 462.933 132.086 463.038C131.365 463.85 130.907 464.861 130.773 465.939C131.981 465.27 133.595 463.694 133.517 463.038C133.505 462.987 133.48 462.94 133.442 462.902C133.405 462.865 133.358 462.839 133.307 462.828C133.214 462.793 133.117 462.775 133.018 462.776Z" fill="#96B1FF"/>
<path d="M110.218 258.57C105.178 280.385 113.815 452.026 113.815 452.026H130.51L137.65 308.959L163.901 452.026L181.752 450.713C170.083 339.909 159.78 273.757 159.78 273.757V265.396L110.218 258.57Z" fill="#263238"/>
<path opacity="0.2" d="M181.778 450.687L163.928 452L143.255 339.384L137.664 308.946L130.524 452.013H113.828C113.828 452.013 105.192 280.345 110.219 258.57L159.833 265.409V273.77C159.833 273.77 170.11 339.948 181.778 450.687Z" fill="white"/>
<path d="M109.129 184.793C110.878 195.092 111.856 205.507 112.056 215.952C112.227 223.237 112.056 230.167 111.807 236.441C111.151 251.155 109.733 262.285 109.799 266.104L159.885 266.997C171.829 214.627 161.565 186.197 161.565 186.197C157.682 185.119 153.737 184.277 149.753 183.677C148.877 183.563 148.002 183.458 147.127 183.362C140.044 182.823 132.936 182.692 125.838 182.968C124.525 182.968 123.121 183.086 121.795 183.191C115.101 183.756 109.129 184.793 109.129 184.793Z" fill="#96B1FF"/>
<path d="M148.756 185.068C148.756 185.068 145.776 189.387 143.387 189.688C140.001 190.148 127.637 182.574 127.637 182.574C130.498 180.461 131.902 175.854 132.519 170.985C132.961 167.032 133.044 163.048 132.769 159.08L144.332 171.654C142.81 175.592 141.904 179.792 144.897 182.745C145.997 183.794 147.314 184.587 148.756 185.068Z" fill="#B55B52"/>
<path opacity="0.2" d="M144.87 182.706C139.776 179.926 135.507 175.851 132.493 170.893C132.934 166.94 133.017 162.956 132.742 158.988L144.306 171.562C142.783 175.539 141.943 179.818 144.87 182.706Z" fill="black"/>
<path d="M157.694 147.74C158.678 151.375 157.694 158.752 152.811 156.127C147.928 153.502 156.053 141.466 157.694 147.74Z" fill="#263238"/>
<path d="M131.6 151.48C130.642 160.668 129.618 166.049 133.464 171.47C139.265 179.608 151.275 177.18 154.963 168.399C158.297 160.524 159.295 146.742 150.934 141.702C149.079 140.587 146.971 139.961 144.808 139.882C142.645 139.803 140.498 140.274 138.566 141.251C136.635 142.228 134.983 143.679 133.764 145.468C132.546 147.256 131.801 149.325 131.6 151.48Z" fill="#B55B52"/>
<path d="M138.295 146.729L138.754 136.399C138.754 136.399 127.781 135.086 128.031 140.757C121.809 143.513 124.277 153.108 132.257 158.108C136.903 154.722 136.759 146.046 136.759 146.046C137.231 146.282 137.757 146.506 138.295 146.729Z" fill="#263238"/>
<path d="M126.809 158.502C126.978 159.642 127.371 160.737 127.965 161.724C128.56 162.711 129.345 163.57 130.275 164.251C132.768 166.063 135.118 164.068 135.328 161.154C135.525 158.529 134.462 154.42 131.521 153.764C130.873 153.636 130.203 153.671 129.571 153.864C128.939 154.058 128.364 154.404 127.898 154.873C127.432 155.341 127.089 155.918 126.899 156.551C126.709 157.184 126.678 157.854 126.809 158.502Z" fill="#B55B52"/>
<path d="M145.08 156.192C144.948 156.94 145.25 157.597 145.736 157.675C146.221 157.754 146.72 157.216 146.838 156.468C146.957 155.72 146.668 155.063 146.182 154.985C145.696 154.906 145.198 155.444 145.08 156.192Z" fill="#263238"/>
<path d="M153.507 157.505C153.388 158.253 153.69 158.922 154.176 158.988C154.662 159.054 155.16 158.529 155.279 157.781C155.397 157.032 155.108 156.376 154.622 156.297C154.137 156.219 153.638 156.77 153.507 157.505Z" fill="#263238"/>
<path d="M150.763 157.505C151.327 159.846 152.21 162.098 153.388 164.199C152.814 164.454 152.192 164.586 151.564 164.586C150.935 164.586 150.314 164.454 149.739 164.199L150.763 157.505Z" fill="#A02724"/>
<path d="M145.264 166.43C145.577 166.529 145.897 166.603 146.222 166.653C146.279 166.661 146.337 166.646 146.384 166.612C146.43 166.577 146.461 166.526 146.471 166.469C146.477 166.44 146.477 166.41 146.47 166.381C146.464 166.351 146.452 166.324 146.435 166.299C146.418 166.275 146.396 166.254 146.371 166.238C146.345 166.222 146.317 166.212 146.287 166.207C145.361 166.083 144.477 165.743 143.706 165.214C142.935 164.685 142.3 163.982 141.851 163.162C141.841 163.134 141.825 163.109 141.805 163.088C141.785 163.066 141.76 163.05 141.733 163.039C141.706 163.027 141.676 163.022 141.647 163.023C141.618 163.024 141.589 163.031 141.562 163.044C141.509 163.067 141.466 163.11 141.444 163.164C141.422 163.218 141.422 163.278 141.444 163.333C141.835 164.083 142.376 164.745 143.033 165.277C143.69 165.81 144.449 166.203 145.264 166.43Z" fill="#263238"/>
<path d="M142.927 153.068C143.002 153.093 143.082 153.097 143.159 153.078C143.235 153.06 143.305 153.02 143.36 152.963C143.756 152.568 144.239 152.27 144.769 152.092C145.3 151.915 145.864 151.862 146.419 151.94C146.475 151.953 146.533 151.954 146.589 151.945C146.646 151.935 146.7 151.915 146.749 151.884C146.798 151.854 146.84 151.814 146.873 151.767C146.907 151.72 146.931 151.668 146.944 151.611C146.957 151.555 146.958 151.497 146.949 151.441C146.939 151.384 146.919 151.33 146.888 151.281C146.858 151.232 146.818 151.19 146.771 151.157C146.724 151.123 146.672 151.099 146.615 151.086C145.919 150.968 145.205 151.02 144.533 151.237C143.861 151.454 143.252 151.83 142.757 152.333C142.673 152.417 142.626 152.53 142.626 152.648C142.626 152.766 142.673 152.88 142.757 152.963C142.806 153.01 142.864 153.046 142.927 153.068Z" fill="#263238"/>
<path d="M157.693 155.182C157.774 155.208 157.862 155.208 157.943 155.182C158.055 155.148 158.151 155.072 158.207 154.968C158.264 154.865 158.277 154.744 158.245 154.63C158.06 153.953 157.714 153.331 157.236 152.816C156.758 152.302 156.163 151.911 155.501 151.677C155.388 151.648 155.268 151.663 155.166 151.719C155.064 151.775 154.986 151.868 154.95 151.979C154.917 152.092 154.931 152.214 154.987 152.317C155.044 152.42 155.139 152.497 155.252 152.53C155.777 152.715 156.247 153.028 156.621 153.441C156.994 153.853 157.259 154.352 157.391 154.893C157.414 154.962 157.454 155.025 157.506 155.075C157.559 155.125 157.623 155.162 157.693 155.182Z" fill="#263238"/>
<path d="M128.03 140.757C128.03 140.757 122.36 135.126 141.602 135.638C160.844 136.15 164.046 146.939 155.226 149.446L154.832 147.687C153.317 148.468 151.653 148.917 149.951 149.003C148.249 149.089 146.548 148.81 144.962 148.186L146.353 147.32C146.353 147.32 133.215 148.658 128.03 140.757Z" fill="#263238"/>
<path d="M143.387 189.649C143.387 189.649 140.933 192.484 138.137 195.28C134.055 193.219 124.5 187.693 125.011 182.588C125.576 181.104 129.461 180.159 129.461 180.159C129.461 180.159 133.582 185.659 143.387 189.649Z" fill="#96B1FF"/>
<path d="M143.387 189.649C145.395 191.268 147.163 193.163 148.637 195.28C151.643 193.337 150.133 183.834 149.031 182.784C147.441 181.916 145.657 181.464 143.846 181.472C144.441 182.769 144.71 184.192 144.63 185.617C144.55 187.042 144.123 188.426 143.387 189.649Z" fill="#96B1FF"/>
<g opacity="0.5">
<path d="M143.387 189.649C143.387 189.649 140.933 192.484 138.137 195.28C134.055 193.219 124.5 187.693 125.011 182.588C125.576 181.104 129.461 180.159 129.461 180.159C129.461 180.159 133.582 185.659 143.387 189.649Z" fill="white"/>
<path d="M143.387 189.649C145.395 191.268 147.163 193.163 148.637 195.28C151.643 193.337 150.133 183.834 149.031 182.784C147.441 181.916 145.657 181.464 143.846 181.472C144.441 182.769 144.71 184.192 144.63 185.617C144.55 187.042 144.123 188.426 143.387 189.649Z" fill="white"/>
</g>
<path opacity="0.2" d="M143.255 339.384L137.664 308.946L138.74 292.841C138.74 292.841 146.392 320.772 143.255 339.384Z" fill="black"/>
<path d="M114.379 198.692C109.523 206.791 102.002 218.38 97.8807 226.61C95.6887 231.27 95.0062 236.257 93.8118 241.284C92.6699 246.653 91.528 252.126 90.2679 257.533L83.994 256.982C83.7709 251.299 83.8234 245.668 84.1646 239.985C84.5978 234.065 84.9128 227.673 87.1441 222.055C91.5805 211.253 97.4213 201.593 103.682 191.867L114.379 198.719V198.692Z" fill="#B55B52"/>
<path d="M109.129 184.793C102.081 186.617 89.4409 211.949 89.4409 211.949L104.417 221.649L117.923 208.523C118.698 203.772 118.407 198.907 117.07 194.282C114.878 186.381 109.129 184.793 109.129 184.793Z" fill="#96B1FF"/>
<path opacity="0.7" d="M109.129 184.793C102.081 186.617 89.4409 211.949 89.4409 211.949L104.417 221.649L117.923 208.523C118.698 203.772 118.407 198.907 117.07 194.282C114.878 186.381 109.129 184.793 109.129 184.793Z" fill="white"/>
<path d="M114.442 262.88L218.485 152.549C219.046 151.955 219.718 151.477 220.463 151.142C221.209 150.808 222.013 150.623 222.829 150.599C223.646 150.575 224.459 150.712 225.223 151.003C225.987 151.293 226.686 151.731 227.28 152.291L229.791 154.66C230.992 155.792 231.694 157.354 231.742 159.004C231.79 160.653 231.181 162.254 230.049 163.454L126.006 273.786L114.442 262.88Z" fill="#263238"/>
<path opacity="0.6" d="M114.442 262.88L218.485 152.549C219.046 151.955 219.718 151.477 220.463 151.142C221.209 150.808 222.013 150.623 222.829 150.599C223.646 150.575 224.459 150.712 225.223 151.003C225.987 151.293 226.686 151.731 227.28 152.291L229.791 154.66C230.992 155.792 231.694 157.354 231.742 159.004C231.79 160.653 231.181 162.254 230.049 163.454L126.006 273.786L114.442 262.88Z" fill="white"/>
<path opacity="0.2" d="M228.045 153.029L229.791 154.67C230.385 155.229 230.863 155.9 231.198 156.644C231.533 157.388 231.717 158.19 231.742 159.006C231.766 159.821 231.63 160.634 231.34 161.396C231.05 162.159 230.613 162.857 230.053 163.451L126.008 273.796L124.275 272.155L228.32 161.81C228.879 161.216 229.316 160.517 229.604 159.754C229.893 158.99 230.028 158.178 230.003 157.362C229.977 156.547 229.791 155.744 229.455 155.001C229.119 154.257 228.64 153.587 228.045 153.029Z" fill="black"/>
<path d="M194.852 195.752L214.133 213.944L216.64 211.28L214.146 208.93L218.11 204.717L216.653 203.339L222.612 197.026L224.069 198.404L227.796 194.453L230.29 196.816L232.876 194.059L231.419 192.681L235.147 188.717L232.22 185.961L234.661 183.375L239.058 187.51L243.521 182.784L224.239 164.593L194.852 195.752Z" fill="#263238"/>
<path opacity="0.6" d="M194.852 195.752L214.133 213.944L216.64 211.28L214.146 208.93L218.11 204.717L216.653 203.339L222.612 197.026L224.069 198.404L227.796 194.453L230.29 196.816L232.876 194.059L231.419 192.681L235.147 188.717L232.22 185.961L234.661 183.375L239.058 187.51L243.521 182.784L224.239 164.593L194.852 195.752Z" fill="white"/>
<g opacity="0.2">
<path opacity="0.6" d="M214.901 209.657L212.398 212.312L214.136 213.95L216.639 211.296L214.901 209.657Z" fill="black"/>
<path opacity="0.6" d="M224.069 198.404L222.612 197.012L216.653 203.339L218.11 204.717L214.146 208.93L212.4 207.29L216.377 203.076L214.907 201.698L220.866 195.372L222.336 196.763L226.051 192.812L227.797 194.453L224.069 198.404Z" fill="black"/>
<path opacity="0.6" d="M229.673 191.027L233.414 187.076L235.16 188.717L231.419 192.681L232.889 194.059L230.29 196.815L228.558 195.175L231.143 192.418L229.673 191.027Z" fill="black"/>
<path opacity="0.6" d="M232.91 181.729L230.469 184.317L232.207 185.956L234.648 183.368L232.91 181.729Z" fill="black"/>
<path opacity="0.6" d="M241.778 181.153L237.312 185.889L239.05 187.528L243.516 182.792L241.778 181.153Z" fill="black"/>
</g>
<path d="M215.716 153.455L183.82 187.278C183.293 187.837 183.319 188.717 183.878 189.244L195.452 200.158C196.011 200.686 196.891 200.66 197.418 200.101L229.314 166.278C229.841 165.719 229.815 164.838 229.256 164.311L217.683 153.397C217.124 152.87 216.243 152.896 215.716 153.455Z" fill="#263238"/>
<path d="M126.613 309.458C124.192 312.025 121.29 314.091 118.07 315.537C114.851 316.983 111.379 317.78 107.852 317.884C104.324 317.987 100.811 317.395 97.5127 316.141C94.2142 314.886 91.1952 312.994 88.6281 310.573L79.9128 302.357C77.345 299.936 75.2793 297.033 73.8335 293.814C72.3877 290.595 71.5903 287.123 71.4867 283.595C71.3831 280.068 71.9754 276.555 73.2297 273.256C74.484 269.958 76.3759 266.939 78.7971 264.372C81.22 261.794 84.1278 259.72 87.354 258.268C90.5801 256.816 94.0611 256.015 97.5974 255.912C101.134 255.808 104.656 256.403 107.961 257.664C111.267 258.924 114.291 260.825 116.861 263.256L125.563 271.473C128.126 273.898 130.187 276.804 131.627 280.025C133.067 283.247 133.858 286.72 133.956 290.248C134.053 293.775 133.455 297.287 132.195 300.583C130.935 303.879 129.038 306.895 126.613 309.458Z" fill="#263238"/>
<path d="M116.598 300.007C115.393 301.287 113.948 302.316 112.346 303.037C110.743 303.758 109.014 304.156 107.258 304.209C105.501 304.261 103.752 303.967 102.109 303.343C100.466 302.719 98.9626 301.777 97.684 300.572L89.4412 292.696C88.1626 291.491 87.1339 290.046 86.4142 288.443C85.6944 286.839 85.2976 285.11 85.2464 283.354C85.1952 281.597 85.4906 279.848 86.1158 278.206C86.741 276.563 87.6837 275.06 88.89 273.783C90.0932 272.503 91.5373 271.473 93.1393 270.753C94.7414 270.032 96.4699 269.635 98.2258 269.584C99.9817 269.532 101.73 269.828 103.372 270.454C105.013 271.08 106.515 272.024 107.791 273.231L116.112 281.107C118.681 283.549 120.176 286.912 120.267 290.456C120.358 294.001 119.038 297.436 116.598 300.007Z" fill="white"/>
<path opacity="0.5" d="M215.716 153.455L183.82 187.278C183.293 187.837 183.319 188.717 183.878 189.244L195.452 200.158C196.011 200.686 196.891 200.66 197.418 200.101L229.314 166.278C229.841 165.719 229.815 164.838 229.256 164.311L217.683 153.397C217.124 152.87 216.243 152.896 215.716 153.455Z" fill="white"/>
<g opacity="0.5">
<path d="M126.613 309.458C124.192 312.025 121.29 314.091 118.07 315.537C114.851 316.983 111.379 317.78 107.852 317.884C104.324 317.987 100.811 317.395 97.5127 316.141C94.2142 314.886 91.1952 312.994 88.6281 310.573L79.9128 302.357C77.345 299.936 75.2793 297.033 73.8335 293.814C72.3877 290.595 71.5903 287.123 71.4867 283.595C71.3831 280.068 71.9754 276.555 73.2297 273.256C74.484 269.958 76.3759 266.939 78.7971 264.372C81.22 261.794 84.1278 259.72 87.354 258.268C90.5801 256.816 94.0611 256.015 97.5974 255.912C101.134 255.808 104.656 256.403 107.961 257.664C111.267 258.924 114.291 260.825 116.861 263.256L125.563 271.473C128.126 273.898 130.187 276.804 131.627 280.025C133.067 283.247 133.858 286.72 133.956 290.248C134.053 293.775 133.455 297.287 132.195 300.583C130.935 303.879 129.038 306.895 126.613 309.458Z" fill="white"/>
<path d="M116.598 300.007C115.393 301.287 113.948 302.316 112.346 303.037C110.743 303.758 109.014 304.156 107.258 304.209C105.501 304.261 103.752 303.967 102.109 303.343C100.466 302.719 98.9626 301.777 97.684 300.572L89.4412 292.696C88.1626 291.491 87.1339 290.046 86.4142 288.443C85.6944 286.839 85.2976 285.11 85.2464 283.354C85.1952 281.597 85.4906 279.848 86.1158 278.206C86.741 276.563 87.6837 275.06 88.89 273.783C90.0932 272.503 91.5373 271.473 93.1393 270.753C94.7414 270.032 96.4699 269.635 98.2258 269.584C99.9817 269.532 101.73 269.828 103.372 270.454C105.013 271.08 106.515 272.024 107.791 273.231L116.112 281.107C118.681 283.549 120.176 286.912 120.267 290.456C120.358 294.001 119.038 297.436 116.598 300.007Z" fill="white"/>
</g>
<path opacity="0.2" d="M225.775 161.022L229.267 164.304C229.398 164.433 229.502 164.588 229.573 164.758C229.645 164.928 229.681 165.11 229.681 165.295C229.681 165.479 229.645 165.662 229.573 165.832C229.502 166.002 229.398 166.156 229.267 166.286L197.372 200.097C197.244 200.228 197.09 200.332 196.921 200.403C196.752 200.474 196.571 200.51 196.387 200.51C196.204 200.51 196.023 200.474 195.854 200.403C195.685 200.332 195.531 200.228 195.403 200.097L191.925 196.815C192.185 197.073 192.537 197.217 192.903 197.217C193.269 197.217 193.62 197.073 193.88 196.815L225.775 162.991C225.906 162.863 226.01 162.71 226.081 162.541C226.152 162.372 226.189 162.19 226.189 162.007C226.189 161.824 226.152 161.642 226.081 161.473C226.01 161.304 225.906 161.151 225.775 161.022Z" fill="black"/>
<g opacity="0.2">
<path d="M105.191 270.803L107.816 273.258C105.208 271.003 101.831 269.842 98.3874 270.015C94.9442 270.189 91.7006 271.684 89.3323 274.189C86.964 276.695 85.6535 280.017 85.6736 283.465C85.6938 286.912 87.0432 290.219 89.4406 292.696L86.8156 290.229C84.2343 287.792 82.7268 284.43 82.6247 280.882C82.5225 277.333 83.8341 273.89 86.2709 271.309C88.7076 268.727 92.0699 267.22 95.6182 267.118C99.1664 267.016 102.61 268.327 105.191 270.764V270.803Z" fill="black"/>
<path d="M122.898 269.071L125.523 271.538C130.544 276.468 133.433 283.169 133.568 290.204C133.703 297.239 131.074 304.047 126.246 309.166C121.418 314.284 114.775 317.306 107.744 317.581C100.713 317.856 93.8545 315.364 88.6407 310.639L86.0156 308.184C91.2121 313.021 98.1107 315.605 105.206 315.374C112.301 315.142 119.016 312.114 123.886 306.949C128.756 301.784 131.386 294.902 131.201 287.806C131.016 280.71 128.031 273.975 122.898 269.071Z" fill="black"/>
</g>
<g opacity="0.2">
<path d="M105.191 270.803L107.816 273.258C105.208 271.003 101.831 269.842 98.3874 270.015C94.9442 270.189 91.7006 271.684 89.3323 274.189C86.964 276.695 85.6535 280.017 85.6736 283.465C85.6938 286.912 87.0432 290.219 89.4406 292.696L86.8156 290.229C84.2343 287.792 82.7268 284.43 82.6247 280.882C82.5225 277.333 83.8341 273.89 86.2709 271.309C88.7076 268.727 92.0699 267.22 95.6182 267.118C99.1664 267.016 102.61 268.327 105.191 270.764V270.803Z" fill="black"/>
<path d="M105.191 270.803L107.816 273.258C105.208 271.003 101.831 269.842 98.3874 270.015C94.9442 270.189 91.7006 271.684 89.3323 274.189C86.964 276.695 85.6535 280.017 85.6736 283.465C85.6938 286.912 87.0432 290.219 89.4406 292.696L86.8156 290.229C84.2343 287.792 82.7268 284.43 82.6247 280.882C82.5225 277.333 83.8341 273.89 86.2709 271.309C88.7076 268.727 92.0699 267.22 95.6182 267.118C99.1664 267.016 102.61 268.327 105.191 270.764V270.803Z" fill="black"/>
</g>
<path d="M85.2149 271.972L94.862 269.557L93.7858 262.508L82.0254 264.884L85.2149 271.972Z" fill="#B55B52"/>
<path d="M84.2698 255.657L82.0254 264.844L93.8383 262.469C93.8383 262.469 93.9958 254.213 89.6119 253.675L84.2698 255.657Z" fill="#B55B52"/>
</svg>
